<?xml version="1.0" encoding="UTF-8"?>
<!DOCTYPE svg PUBLIC "-//W3C//DTD SVG 1.1//EN" "http://www.w3.org/Graphics/SVG/1.1/DTD/svg11.dtd">
<!-- Creator: CorelDRAW X5 -->
<svg xmlns="http://www.w3.org/2000/svg" xml:space="preserve" width="44.463mm" height="46.381mm" shape-rendering="geometricPrecision" text-rendering="geometricPrecision" image-rendering="optimizeQuality" fill-rule="evenodd" clip-rule="evenodd"
viewBox="0 0 49469 51603"
 xmlns:xlink="http://www.w3.org/1999/xlink">
 <g id="Layer_x0020_1">
  <metadata id="CorelCorpID_0Corel-Layer"/>
  <g id="_324536808">
   <g>
    <path fill="white" fill-rule="nonzero" d="M41920 17328c-107,-160 -220,-278 -345,-362l-31 -21 -25 28c-45,50 -104,100 -167,153 -206,175 -462,392 -223,697l11 10 11 2c36,8 73,12 109,12 275,0 479,-226 659,-469l18 -24 -17 -25z"/>
    <path fill="white" fill-rule="nonzero" d="M39008 18794c98,0 195,-60 237,-145 40,-82 26,-172 -39,-254l-22 -28 -108 53c-91,45 -181,90 -273,133l-33 16 10 35c33,119 118,189 228,189z"/>
    <path fill="white" fill-rule="nonzero" d="M39765 18688l-17 0 -11 7c-212,137 -446,244 -672,347 -67,31 -134,61 -200,92l-21 10 -3 23c-24,162 0,285 70,366 60,69 149,104 265,104 374,0 892,-357 923,-637 12,-106 -36,-247 -332,-313z"/>
    <path fill="white" fill-rule="nonzero" d="M5066 19327c-30,-232 -342,-387 -614,-387 -141,0 -251,43 -311,120 -51,66 -64,152 -37,256l1 4 2 4c90,159 186,318 278,472 153,254 311,518 448,789l2 3 2 3c393,457 767,973 1110,1536l15 25 73 -36 -11 -27c-324,-837 -638,-1742 -959,-2761z"/>
    <path fill="white" fill-rule="nonzero" d="M5570 19252c-121,0 -215,47 -280,139l-24 34 33 25c126,97 234,205 338,310 244,245 475,476 864,476 73,0 151,-8 231,-24l56 -11 -26 -51c-180,-354 -787,-897 -1193,-897z"/>
    <path fill="white" fill-rule="nonzero" d="M3115 19348l-18 -16 -23 7c-955,296 -1826,1076 -2221,1992l-3 19 7 13c134,258 298,383 501,383 272,0 563,-234 844,-460 181,-146 352,-283 511,-355 351,-158 623,-503 676,-859 29,-196 6,-481 -273,-724z"/>
    <path fill="white" fill-rule="nonzero" d="M19204 21373c-114,0 -231,8 -334,16 -84,6 -164,12 -228,12l-20 0 -3 1c-1152,215 -2264,587 -3291,957 -109,30 -180,89 -212,175 -84,228 157,588 236,706l17 25 30 -7c629,-157 1248,-385 1846,-606 831,-307 1690,-623 2585,-751l35 -5 2 -35c8,-136 -26,-245 -101,-325 -105,-111 -284,-163 -562,-163z"/>
    <path fill="white" fill-rule="nonzero" d="M26543 26400c-28,-279 -230,-378 -410,-378 -215,0 -422,135 -504,329l-2 6 0 6c0,295 56,587 110,871 28,144 56,292 77,441 -174,-279 -434,-406 -639,-406 -137,0 -256,56 -336,157 -74,95 -147,271 -99,581 -88,-112 -147,-247 -204,-379 -87,-198 -176,-402 -361,-543l-52 -39 -16 63c-42,156 -88,314 -134,467 -60,201 -121,408 -172,619l-3 10 26 61 3 3c224,291 383,634 538,967 206,443 419,901 791,1247l10 7 9 2c48,9 93,13 135,13 130,0 238,-43 319,-126 202,-208 201,-629 193,-929 211,212 472,430 721,430 165,0 300,-99 400,-293l3 -5 1 -6c65,-692 -73,-1371 -206,-2027 -76,-375 -155,-763 -195,-1148z"/>
    <path fill="white" fill-rule="nonzero" d="M21348 27899c-184,0 -317,84 -385,243 -130,304 20,862 315,1170l47 49 25 -63c149,-376 258,-772 363,-1156l39 -144 -36 -14c-138,-56 -262,-85 -369,-85z"/>
    <path fill="white" fill-rule="nonzero" d="M9548 36088l11 28 79 -26 -8 -29c-809,-2936 -1491,-5307 -2147,-7460l-23 -75 -66 76c-159,183 -339,391 -254,673 493,1206 910,2465 1313,3682 342,1032 695,2100 1094,3131z"/>
    <path fill="white" fill-rule="nonzero" d="M24062 31148c140,0 287,-84 442,-254l9 -16 -1 -14c-54,-551 -302,-1078 -541,-1588 -91,-193 -185,-393 -266,-590l-35 -85 -74 138c-163,306 -332,623 -420,972l-1 13 3 9c28,73 60,167 91,258 166,488 393,1157 792,1157z"/>
    <path fill="white" fill-rule="nonzero" d="M22835 30795l-29 88c-94,282 -174,534 -245,769l-27 89 85 -36c171,-73 293,-197 341,-350 49,-153 21,-324 -76,-481l-49 -78z"/>
    <path fill="white" fill-rule="nonzero" d="M25208 33623c-220,0 -452,42 -630,79l-18 4c-142,34 -289,70 -434,119 -317,135 -522,331 -611,588l-4 11 11 28c80,209 163,426 269,628l15 28 31 -5c31,-5 62,-10 93,-14l12 -2c33,-5 67,-9 100,-15l37 -6 -1 -38c-7,-206 52,-374 175,-501 286,-296 866,-333 1339,-333 86,0 169,1 246,2l147 2 12 -24c10,-20 31,-59 41,-79l11 -20 -10 -20c-146,-291 -418,-432 -831,-432z"/>
    <path fill="white" fill-rule="nonzero" d="M11705 46755c-1240,0 -2318,762 -3270,1434l-78 55 93 22c684,162 1237,237 1742,237 454,0 862,-61 1249,-186l13 -7 6 -10c144,-221 226,-472 305,-715 83,-256 170,-521 328,-741l43 -60 -73 -9c-119,-14 -240,-21 -360,-21z"/>
   </g>
   <g>
    <path fill="#666664" fill-rule="nonzero" d="M27047 13140l18 -31 -27 -24c-634,-562 -597,-1413 -514,-2167l6 -57 -56 9c-65,10 -127,16 -185,16 -218,0 -391,-74 -516,-221 -331,-391 -248,-1167 -195,-1488 184,-368 529,-575 863,-775 378,-227 769,-461 943,-933l13 -52 -54 -3c-433,-26 -1026,-61 -1274,-374 -111,-140 -147,-329 -107,-564l12 -69 -67 20c-126,37 -260,55 -421,55 -138,0 -278,-13 -414,-25 -137,-13 -278,-26 -416,-26 -128,0 -241,11 -349,35l-13 5 -7 8c-247,294 -563,521 -868,741 -221,159 -449,323 -655,516 -112,134 -157,293 -129,459 36,222 200,450 429,598 -35,212 -257,309 -453,309 -196,0 -418,-95 -474,-307l-1 -3 -2 -3c-257,-500 -150,-1046 -46,-1576 41,-210 84,-427 102,-636 351,-425 907,-489 1445,-551 380,-44 774,-89 1107,-262l7 -4 5 -7c154,-223 371,-485 688,-540 12,29 24,60 36,91 68,174 138,353 314,453l109 62 -47 -116c-150,-368 -125,-705 74,-1000 362,-538 1218,-819 1877,-819 28,0 57,1 84,2l132 5 -103 -82c-195,-157 -502,-243 -862,-243 -328,0 -669,71 -936,194 -161,71 -330,133 -492,193 -392,145 -797,295 -1131,569 -159,-56 -344,-87 -523,-116 -464,-77 -944,-156 -1026,-679l-23 -143 -60 132c-188,417 -695,537 -1145,644 -114,27 -222,53 -324,83 -324,-180 -677,-323 -1020,-461 -589,-238 -1197,-483 -1664,-923 92,-50 184,-75 282,-75 257,0 508,175 751,344 158,109 306,213 461,276l55 23 4 -60c14,-192 -96,-381 -203,-565 -158,-272 -295,-507 -32,-705 410,-233 750,-559 1080,-876 150,-144 305,-293 464,-430l19 -16 -33 -64 -24 6c-182,45 -358,117 -529,187 -258,107 -503,207 -751,207 -171,0 -329,-49 -483,-149l-45 -29 -19 50c-164,423 -508,469 -841,514 -279,38 -567,77 -758,328l-6 10 -1 9c-98,814 -1021,1613 -1863,1613 -336,0 -625,-133 -838,-386 136,-96 276,-189 423,-288 867,-581 1849,-1239 2116,-2336l6 -26 -20 -17c-70,-59 -162,-89 -274,-89 -344,0 -791,281 -1008,471 -332,325 -778,412 -1209,496 -274,54 -558,109 -816,224 -264,120 -327,359 -389,591 -44,164 -89,334 -208,455 -16,2 -32,3 -47,3 -216,0 -359,-194 -497,-383 -146,-199 -284,-387 -508,-387 -56,0 -116,13 -181,40 -56,29 -106,43 -153,43 -129,0 -223,-120 -322,-247 -126,-161 -268,-343 -519,-343 -12,0 -25,0 -38,1 -94,-46 -179,-69 -252,-69 -87,0 -158,32 -212,94 -152,176 -132,566 -89,862l1 5 2 4c88,186 -51,282 -273,407 -137,77 -266,150 -292,266 -14,62 4,126 55,196l5 6 7 3c65,33 135,62 202,90 214,89 435,182 529,399l13 30 104 -15 8 -27c116,-411 527,-709 977,-709 217,0 414,72 570,207 81,101 178,150 295,150 132,0 264,-63 392,-123 109,-52 211,-100 295,-100 57,0 140,21 197,202 -10,57 -1,106 29,147 72,100 246,120 400,139 96,11 229,27 242,63 1,3 8,30 -58,103 -195,42 -398,118 -594,191 -306,114 -622,232 -925,232 -225,0 -423,-66 -608,-204 -135,-69 -271,-103 -405,-103 -620,0 -1105,746 -1334,1389 -79,455 232,558 506,648 170,56 331,109 389,238 43,97 28,232 -46,415 -194,-72 -419,-107 -658,-144 -520,-80 -1057,-164 -1220,-665 278,-93 452,-245 517,-452 162,-519 -433,-1270 -631,-1520l-14 -11 -14 -1c-125,-7 -272,-86 -414,-162 -154,-82 -313,-167 -455,-167 -99,0 -182,41 -247,123 -66,-27 -128,-40 -184,-40 -110,0 -257,50 -332,291 -137,435 45,1199 336,1433 -27,165 2,301 87,404 102,124 281,192 505,192 109,0 224,-17 331,-48 -165,205 -401,298 -750,298 -170,0 -352,-21 -529,-42 -178,-21 -361,-42 -533,-42 -404,0 -664,119 -841,386 -44,17 -94,29 -143,40 -150,36 -320,76 -366,266l-21 86 81 -37c307,-140 633,-215 942,-215 311,0 591,74 832,219 179,362 236,889 26,1240 43,-319 -33,-565 -229,-748l-30 -27 -29 27c-189,176 -357,381 -520,580 -382,466 -742,906 -1353,994l-89 13 65 62c164,155 363,257 558,356 52,26 103,53 154,80 23,191 -71,358 -169,534 -101,181 -206,368 -187,596l0 4 2 4c90,242 379,454 620,454 116,0 268,-46 347,-261 14,-2 26,-2 38,-2 34,0 57,7 63,19 45,100 -312,506 -484,701 -84,95 -156,177 -194,230l-30 41 46 23c118,59 219,158 316,255 156,156 318,316 562,316 48,0 99,-6 151,-19l22 -5 8 -21c290,-746 1288,-1122 2017,-1397l225 -85 -140 -32c-499,-115 -945,-752 -994,-1420 -40,-545 196,-959 648,-1138 32,-4 64,-7 93,-7 430,0 520,491 592,885 13,71 25,139 39,201l11 50 130 -51c344,-135 773,-303 1150,-303 366,0 612,160 750,489l46 110 35 -114c127,-409 489,-555 785,-555 413,0 845,264 871,764 -11,165 22,291 98,373 72,77 179,115 326,115 187,0 402,-61 594,-115 72,-20 140,-40 194,-52 38,5 76,8 111,8 330,0 487,-224 640,-440 143,-203 291,-413 590,-413 54,0 113,7 175,20l43 9 9 -43c161,-776 -715,-1299 -1297,-1646l-10 -4 -8 0c-340,-10 -546,-295 -573,-571 -21,-219 75,-502 415,-581l7 -2 6 -4c299,-239 667,-321 1024,-401 402,-90 817,-182 1142,-503l6 -6 2 -7c16,-49 30,-105 46,-165 66,-253 147,-565 412,-584l32 64c172,338 349,688 748,815 -70,316 -318,325 -604,335 -218,8 -444,16 -608,160 -91,65 -201,128 -317,194 -431,245 -919,522 -738,1097 105,382 457,431 752,431 105,0 212,-7 317,-14 92,-6 179,-12 257,-12 0,0 0,0 1,0 -91,204 -76,431 -61,651 23,352 44,655 -360,806l-106 39 105 41c462,183 750,566 971,917l13 20 24 0c398,5 705,224 1010,466l29 23 27 -26c139,-130 97,-299 60,-448 -26,-106 -53,-217 -15,-314 56,-243 299,-352 515,-352 238,0 435,122 505,314 35,69 71,142 104,213 181,381 369,774 815,889 537,130 433,669 341,1146 -15,78 -29,151 -40,220l-3 22 15 15c286,286 699,394 1098,499 529,139 1076,282 1330,841 22,113 88,125 116,125 60,0 119,-52 138,-121 19,-67 -6,-131 -64,-168 -144,-223 -147,-521 -8,-780 131,-244 356,-395 586,-395 120,0 237,39 350,117 95,503 572,1081 1055,1081 242,0 455,-143 616,-413z"/>
    <path fill="#666664" fill-rule="nonzero" d="M18247 1221c4,-111 -16,-433 -150,-457l-50 -9 -1 51c-3,207 -7,452 -8,697l0 48 48 -5c132,-14 158,-210 162,-325z"/>
    <path fill="#666664" fill-rule="nonzero" d="M22228 3214l-51 77 92 -10c401,-45 810,-124 1204,-201 593,-116 1206,-235 1800,-235 71,0 142,2 214,5l15 -2 9 -7c205,-154 249,-398 291,-635 24,-139 50,-283 110,-406l4 -13 -2 -10c-25,-153 -113,-233 -254,-233 -169,0 -391,119 -554,206 -57,31 -107,57 -146,75l-4 2 -3 2c-153,119 -326,174 -544,174 -160,0 -329,-30 -493,-59 -170,-30 -345,-61 -517,-61 -126,0 -238,16 -338,49 -150,30 -279,110 -404,187 -149,92 -290,179 -456,179 -50,0 -101,-8 -156,-25l-6 -2 -6 0c-57,4 -95,24 -113,60 -37,76 33,183 131,331 120,182 270,409 177,550z"/>
    <path fill="#666664" fill-rule="nonzero" d="M28396 4466l2 7 4 5c50,65 149,102 272,102 118,0 283,-37 359,-141l29 -39 -42 -24c-145,-82 -298,-152 -446,-220l-5 -2c-81,-37 -163,-75 -243,-114l-114 -56 56 114c54,111 98,235 129,368z"/>
    <path fill="#666664" fill-rule="nonzero" d="M28310 5833l-12 0c-140,0 -276,-43 -409,-85 -123,-39 -239,-76 -352,-76 -169,0 -296,85 -400,271 -48,111 -52,199 -13,271 70,128 256,159 436,190 0,0 38,6 53,9 270,389 561,945 41,1339l-24 18 47 69 26 -16c213,-128 453,-215 685,-301 469,-172 954,-350 1236,-862l59 -107 -113 46c-80,32 -151,48 -217,48 -209,0 -324,-166 -458,-358 -144,-206 -292,-420 -586,-456z"/>
    <path fill="#666664" fill-rule="nonzero" d="M6718 8210l18 -4 9 -12c149,-187 345,-330 536,-470 176,-129 358,-261 503,-429l49 -57 -74 -14c-132,-25 -267,-38 -401,-38 -341,0 -685,85 -996,245l-21 11 -2 24c-15,197 -38,495 103,648 60,65 143,98 247,98 8,0 29,-1 29,-1z"/>
    <path fill="#666664" fill-rule="nonzero" d="M29555 10423c-505,-73 -1133,-164 -1277,-682 14,-92 0,-163 -42,-217 -74,-94 -211,-104 -343,-114 -42,-3 -85,-6 -127,-13l-20 1 -12 11c-205,193 -321,456 -414,687l-13 32 28 20c137,97 304,174 482,255 492,226 956,439 737,1045l-9 25 66 38 17 -21c304,-368 720,-622 1122,-867l214 -131 -109 -21c-93,-18 -199,-33 -301,-48z"/>
    <path fill="#666664" fill-rule="nonzero" d="M19460 16010c-23,0 -50,10 -87,32 -676,488 -1491,1027 -2418,1325 -190,14 -282,131 -304,237 -29,137 42,276 177,347l5 2 19 5 14 -6c1128,-489 1995,-1074 2653,-1790l6 -9 2 -8c8,-35 13,-80 -11,-110 -13,-16 -33,-25 -55,-25z"/>
    <path fill="#666664" fill-rule="nonzero" d="M22436 16869c-41,-171 -140,-258 -294,-258 -127,0 -268,59 -393,111l-58 24 -10 6 -5 8c-474,668 -344,1465 -218,2237 39,237 79,483 98,714l2 23 20 11c162,92 302,137 428,137 69,0 134,-14 194,-41l28 -13 -3 -31c-42,-409 79,-809 196,-1195 177,-585 344,-1138 17,-1733z"/>
    <path fill="#666664" fill-rule="nonzero" d="M13263 17997c-26,0 -52,4 -81,13l-11 6 -6 8c-269,332 -672,438 -1061,540 -293,77 -595,156 -834,331l-21 15 29 67 25 -5c211,-39 444,-50 669,-61 505,-24 1028,-49 1419,-367 140,-80 160,-222 132,-327 -34,-129 -141,-220 -260,-220z"/>
    <path fill="#666664" fill-rule="nonzero" d="M25026 21519l-6 14 2 12c51,380 -186,644 -437,924 -172,192 -351,391 -432,631 -349,892 -654,1629 -1121,2314l-2 3 -1 3c-938,2378 -1756,4531 -2268,6791l-1 6 1 6c9,58 16,144 23,243 30,398 71,944 358,944 61,0 130,-27 206,-83l11 -12 2 -12c320,-1590 803,-3173 1230,-4571l2 -7 0 -3c98,-815 381,-1603 654,-2364l12 -35c38,-107 77,-214 116,-326 426,-1977 1651,-3635 2836,-5239l160 -217 -142 57c-327,132 -957,554 -1203,919z"/>
    <path fill="#666664" fill-rule="nonzero" d="M19420 26403l-12 11c-384,347 -801,646 -1237,890l-120 67 137 14c51,5 84,19 93,39 12,26 -7,80 -51,143l-67 98 114 -31c210,-57 422,-168 613,-321l3 -3 2 -3c18,-24 36,-49 54,-74 148,-203 301,-413 528,-413 66,0 139,18 219,55l11 5 34 -11c155,-48 390,-119 469,-280l9 -17 14 2 11 -5c1111,-520 1928,-1652 2185,-3026l7 -37 -36 -12c-162,-54 -255,-125 -282,-217 -56,-188 162,-462 373,-728 187,-235 380,-479 412,-691 68,-145 -27,-275 -104,-380 -19,-26 -37,-51 -52,-75l-44 -70 -32 76c-40,93 -137,144 -273,144 -193,0 -412,-98 -510,-229 -44,-59 -58,-119 -42,-176l23 -78 -78 25c-62,20 -121,45 -180,77l-14 12 -3 14c-40,163 -73,310 -102,450l-6 28 23 16c105,74 237,114 364,152 162,49 315,95 400,205 -45,171 -131,191 -192,191 -139,0 -324,-121 -472,-218 -38,-25 -74,-48 -106,-68l-62 -38 -4 72c-7,125 -13,260 -18,414l-1 41 40 4c256,24 340,188 333,320 -5,109 -67,192 -143,192 -68,0 -147,-61 -222,-172l-59 -87 -29 152c-20,126 -40,252 -59,381l-8 85 38 8c56,11 89,29 98,53 21,53 -59,163 -124,251 -53,73 -104,143 -123,203 -5,10 -13,24 -20,38l-24 46 -1 4c-109,481 -222,978 -614,1323l-6 5 -3 7c-11,27 -21,56 -31,85 -59,165 -114,320 -290,340l-12 3 -7 6c-98,76 -192,166 -289,274l-75 83 111 -11c20,-2 38,-3 54,-3 51,0 84,9 100,28 25,29 15,97 6,162 -14,95 -32,218 53,295 -223,-33 -445,-72 -676,-114l-20 1zm2316 -2642l0 0c19,-33 38,-65 52,-94 139,40 233,203 224,329 -8,105 -85,128 -148,128 -10,0 -20,0 -34,-1l-4 0 -4 1c-52,12 -96,17 -132,17 -32,0 -72,-5 -86,-28 -36,-62 68,-242 131,-352z"/>
    <path fill="#666664" fill-rule="nonzero" d="M16443 28356l13 -2 72 -92c96,-122 195,-248 301,-364l17 -19 -43 -60 -24 10c-130,56 -266,104 -399,150 -92,32 -195,68 -295,107l-40 17c-20,9 -135,60 -135,60l40 44c94,104 220,155 384,155 33,0 67,-2 108,-7z"/>
    <path fill="#666664" fill-rule="nonzero" d="M6017 29691c-69,0 -132,32 -185,96 -36,62 -102,70 -161,70 -28,0 -57,-2 -86,-4 -29,-2 -57,-4 -82,-4 -49,0 -109,6 -149,53 -35,43 -44,110 -26,205l5 28 28 6c300,66 608,112 914,136l24 2 14 -20c67,-95 70,-225 6,-348 -68,-132 -190,-220 -304,-220z"/>
    <path fill="#666664" fill-rule="nonzero" d="M29597 32577c-53,-90 -108,-184 -145,-282l-21 -56 -47 38c-501,406 -1134,642 -1746,871 -329,123 -640,239 -930,379l-35 17 30 78c84,223 171,453 222,689l9 45 44 -12c956,-253 1919,-709 2787,-1318l24 -17 -7 -28c-35,-149 -111,-278 -185,-404z"/>
    <path fill="#666664" fill-rule="nonzero" d="M21839 35254c24,0 48,-3 79,-11 282,-100 582,-114 839,-114 83,0 167,1 250,3l17 0c78,1 156,3 234,3 30,0 60,0 90,-1l64 -1 -24 -59c-20,-49 -40,-122 -61,-201 -71,-263 -159,-591 -402,-591 -50,0 -103,15 -158,44 -78,40 -170,58 -288,58 -78,0 -161,-8 -241,-16 -76,-7 -162,-16 -242,-16 -199,0 -334,52 -438,167l-17 19 9 24c21,57 28,142 35,232 17,203 39,457 256,457z"/>
    <path fill="#666664" fill-rule="nonzero" d="M23056 48113c-349,0 -705,-23 -1054,-45 -335,-21 -681,-44 -1011,-44 -175,0 -333,6 -483,18l-27 2 -5 77 27 6c351,80 683,197 989,347 -1014,465 -1845,682 -2610,682 -544,0 -1056,-117 -1523,-346l-3 -2 -4 -1c-19,-4 -38,-6 -58,-6 -151,0 -291,123 -357,237 -58,100 -67,197 -26,268 28,48 92,106 241,106 18,0 37,-1 56,-3 265,21 533,44 793,67 768,68 1562,138 2345,138 604,0 1142,-42 1645,-128l3 -1 3 -1c131,-54 277,-103 435,-157 654,-221 1396,-472 1478,-1219l6 -56 -55 8c-242,35 -505,51 -803,51z"/>
    <path fill="#666664" fill-rule="nonzero" d="M43605 49366l-2 -3 -3 -2c-945,-688 -2108,-914 -3124,-1073l-5 -1 -5 1c-537,85 -1076,218 -1597,347 -878,216 -1785,440 -2707,440 -108,0 -216,-3 -322,-9l-54 -3 8 53c56,369 406,395 715,417 170,12 345,25 474,91l5 3 6 1c798,94 1601,281 2378,461 1112,258 2261,526 3416,526 126,0 251,-3 369,-9 20,1 40,2 59,2 270,0 473,-115 570,-323 124,-266 49,-643 -182,-918zm-1223 703l0 0 -6 3c-1079,-98 -2134,-417 -3155,-726 -157,-48 -314,-95 -471,-142 223,-77 515,-128 823,-181 283,-49 576,-100 824,-174 57,-3 116,-4 175,-4 748,0 1581,244 2475,725 -15,257 -404,402 -665,500z"/>
    <path fill="#666664" fill-rule="nonzero" d="M18456 49756c-247,0 -518,-50 -781,-98 -264,-49 -537,-99 -789,-99 -286,0 -513,67 -691,203l-34 26 26 34c268,353 736,401 1159,401 143,0 290,-6 434,-12 143,-6 278,-12 409,-12 156,0 278,8 385,25l40 7 9 -39c33,-138 74,-272 122,-397l27 -71 -74 12c-75,12 -153,18 -241,18z"/>
    <path fill="#666664" fill-rule="nonzero" d="M42508 50687c-1,0 -1,0 -2,0 -1980,-275 -4296,-625 -6462,-1131 -60,-30 -117,-45 -171,-45 -154,0 -230,121 -236,234 -7,129 74,277 263,296 2298,495 4371,918 6477,1088l59 5 -13 -58c-13,-58 -48,-212 -1,-272 10,-12 29,-29 73,-30l131 18 16 -82 -29 -7c-40,-10 -76,-15 -105,-15z"/>
   </g>
   <g>
    <path fill="#444444" fill-rule="nonzero" d="M16242 3745c882,0 1847,-837 1950,-1689l10 -84 -74 41c-123,68 -190,82 -225,82 -34,0 -41,-14 -44,-21 -38,-84 88,-353 257,-546l8 -13 0 -12c1,-245 5,-489 8,-694 8,-126 -124,-176 -203,-206l-59 -23 -12 48c-259,1063 -1226,1712 -2080,2284 -162,108 -315,211 -463,316l-37 26 28 36c232,297 556,454 935,454z"/>
    <path fill="#444444" fill-rule="nonzero" d="M20344 4064c346,140 703,284 1030,467l17 5 13 -4c106,-32 219,-59 339,-87 428,-102 910,-217 1145,-588 139,480 613,559 1072,635 192,32 374,62 530,120l24 9 19 -16c326,-275 732,-425 1127,-571 163,-60 333,-123 495,-194l34 -15 -10 -36c-66,-245 -29,-516 6,-780 60,-441 122,-897 -285,-1258l-43 -38 -25 51c-64,131 -91,281 -116,426 -40,225 -77,437 -245,571 -65,-3 -131,-4 -198,-4 -602,0 -1219,120 -1817,237 -368,72 -748,146 -1122,191 48,-178 -94,-394 -211,-570 -56,-85 -141,-214 -126,-245 2,-3 12,-10 41,-12l98 -7 -71 -68c-135,-129 -114,-396 -93,-654 20,-254 39,-494 -83,-626 -58,-63 -141,-94 -252,-94 -30,0 -62,2 -100,7l-12 3 -7 6c-161,139 -317,289 -469,434 -325,312 -661,634 -1066,865 -329,248 -152,553 4,821 87,150 177,304 190,451 -126,-61 -252,-148 -384,-240 -254,-176 -517,-359 -801,-359 -132,0 -255,38 -377,117l-46 29 39 38c485,477 1119,733 1733,981z"/>
    <path fill="#444444" fill-rule="nonzero" d="M10444 5330c-59,188 -227,325 -500,408l-40 12 11 41c162,591 742,681 1303,767 249,39 484,75 678,154l39 16 17 -39c98,-225 118,-396 61,-523 -73,-164 -252,-223 -441,-285 -264,-87 -514,-169 -449,-544 218,-611 676,-1325 1250,-1325 120,0 242,31 359,90 195,146 409,217 654,217 318,0 642,-121 955,-238 207,-77 403,-150 599,-191l12 -5 7 -7c79,-84 105,-146 85,-202 -31,-85 -162,-101 -313,-119 -129,-15 -290,-35 -339,-103 -16,-23 -20,-52 -13,-94l1 -8 -2 -7c-55,-186 -148,-277 -283,-277 -103,0 -214,53 -332,108 -119,57 -243,115 -355,115 -91,0 -164,-39 -231,-121l-2 -2 -2 -2c-173,-152 -391,-232 -630,-232 -472,0 -904,303 -1045,726 -116,-215 -338,-307 -552,-397 -66,-27 -134,-56 -196,-87l-105 -53 46 108c138,328 420,540 720,540 0,0 1,0 1,0 -124,105 -296,155 -533,155 -183,0 -378,-29 -567,-57 -160,-24 -310,-46 -444,-50l-93 -2 58 73c189,238 762,961 613,1437z"/>
    <path fill="#444444" fill-rule="nonzero" d="M31875 12121c-246,0 -477,-96 -701,-189 -124,-52 -252,-105 -383,-143 -55,-20 -108,-30 -160,-30 -176,0 -306,113 -431,222 -116,101 -237,206 -389,206 -31,0 -64,-4 -98,-13 -32,-7 -64,-10 -95,-10 -246,0 -373,217 -486,408 -88,149 -171,290 -290,290 0,0 -1,0 -1,0 -85,-577 374,-860 860,-1161 448,-277 911,-563 927,-1101 232,-261 559,-395 877,-524 152,-62 308,-126 454,-204l80 -43 -83 -36c-82,-35 -173,-53 -271,-53 -324,0 -678,195 -963,352l-78 43c-52,10 -105,14 -158,14 -247,0 -482,-104 -709,-204 -234,-103 -476,-210 -737,-210 -95,0 -186,14 -278,42l-3 1 -3 1c-45,24 -90,36 -134,36 -147,0 -256,-140 -257,-264 0,-103 75,-162 208,-162 351,-11 600,-187 667,-471 61,-263 -63,-548 -306,-712 566,-275 1188,-627 1791,-967 164,-93 327,-185 487,-274l29 -16 -9 -32c-82,-313 -317,-465 -719,-465 -241,0 -500,54 -728,101 -74,15 -143,30 -212,42l-15 3 -10 18c-267,484 -715,649 -1190,823 -150,55 -305,112 -454,180 296,-417 17,-920 -233,-1277l-12 -12 -13 -2c-22,-4 -45,-8 -71,-12 -160,-27 -325,-55 -374,-146 -26,-47 -20,-111 16,-195l9 -20 -11 -19c-124,-206 -104,-487 57,-772 226,-401 650,-681 1031,-681 43,0 85,3 127,10l64 10 -14 -63c-31,-136 -76,-264 -135,-386l-6 -9 -7 -5c-158,-104 -293,-179 -424,-238l-6 -2 -6 0c-29,-1 -58,-2 -88,-2 -682,0 -1570,295 -1949,858 -188,280 -233,592 -135,931 -74,-88 -118,-202 -162,-314 -17,-42 -33,-85 -51,-125l-13 -30 -32 4c-370,47 -617,346 -771,571 -314,159 -696,203 -1066,246 -560,64 -1138,131 -1513,596l-6 11 -1 10c-17,209 -60,428 -102,641 -106,542 -216,1103 52,1626 68,253 327,366 556,366 243,0 516,-130 542,-414l3 -27 -23 -14c-218,-133 -380,-351 -413,-554 -23,-143 13,-273 107,-386 199,-185 425,-348 643,-505 306,-220 621,-448 874,-743 94,-20 196,-29 312,-29 135,0 274,13 409,25 138,13 280,26 421,26 141,0 266,-13 381,-41 -27,230 18,420 134,566 263,332 840,377 1279,403 -173,404 -534,621 -884,831 -346,207 -704,422 -899,819l-2 4 -1 5c-55,331 -144,1145 213,1566 142,167 337,252 582,252 46,0 93,-3 142,-9 -80,748 -103,1584 521,2162 -142,223 -322,341 -523,341 -449,0 -892,-552 -974,-1032l-6 -16 -11 -8c-132,-96 -272,-144 -415,-144 -262,0 -516,169 -662,441 -156,290 -149,626 19,879l4 6 6 4c33,20 44,45 35,78 -9,32 -37,58 -55,58 -13,0 -26,-24 -33,-61l-1 -4 -2 -4c-272,-602 -840,-751 -1390,-895 -381,-100 -774,-203 -1043,-461 10,-61 23,-126 36,-195 90,-463 213,-1097 -405,-1246 -406,-104 -585,-479 -758,-842 -34,-71 -69,-145 -103,-210 -80,-223 -310,-366 -584,-366 -250,0 -533,129 -598,413 -47,117 -17,241 13,361 32,131 61,246 -10,337 -300,-237 -605,-446 -1007,-460 -210,-332 -482,-691 -907,-892 367,-186 345,-524 323,-852 -15,-231 -31,-469 82,-665l35 -61 -71 -4c-23,-1 -48,-2 -73,-2 -81,0 -170,6 -265,12 -101,7 -206,13 -309,13 -264,0 -579,-42 -669,-369 -161,-509 295,-769 698,-997 118,-67 230,-131 328,-201 144,-127 354,-134 557,-142 306,-11 623,-23 693,-445l6 -39 -38 -10c-389,-106 -563,-449 -732,-782l-47 -92 -17 -20 -22 0c-351,0 -449,376 -521,652 -14,54 -27,105 -39,147 -303,294 -704,383 -1091,470 -364,81 -739,165 -1049,411 -386,92 -495,418 -470,670 30,310 261,631 645,649 546,326 1359,815 1252,1505 -52,-9 -102,-13 -149,-13 -344,0 -505,229 -661,450 -153,216 -284,403 -569,403 -33,0 -67,-3 -110,-8l-6 -1 -5 1c-62,14 -134,34 -211,56 -184,52 -393,111 -569,111 -122,0 -208,-29 -263,-87 -59,-64 -85,-167 -75,-313 -28,-559 -503,-852 -957,-852 -300,0 -666,137 -831,517 -159,-300 -416,-447 -785,-447 -394,0 -831,171 -1182,309l-34 13c-10,-47 -19,-97 -28,-149 -78,-426 -175,-956 -678,-956 -36,0 -73,3 -112,9l-4 1 -3 1c-493,193 -752,640 -709,1227 48,651 451,1270 937,1460 -734,277 -1721,656 -2032,1415 -37,8 -74,12 -109,12 -208,0 -350,-141 -501,-291 -102,-101 -207,-206 -338,-271l-27 -14 -22 21c-101,99 -241,155 -375,210 -207,84 -421,171 -517,415l-3 12 2 10c69,329 -59,640 -182,940 -25,60 -50,121 -73,181l-16 42 43 14c95,32 193,48 292,48 424,0 801,-283 1166,-556 113,-84 220,-165 325,-234 -4,497 -486,771 -913,1013 -114,65 -222,126 -323,192l-11 11 -3 12c-36,130 -30,235 18,321 84,149 277,201 464,252 132,36 258,70 332,134 -6,81 -22,174 -39,274 -60,353 -143,838 292,966 126,46 245,69 356,69 189,0 353,-69 475,-199 142,-153 223,-390 225,-661 162,180 258,421 260,659 2,248 -93,475 -266,635 -163,115 -211,339 -129,598 68,214 232,442 402,442 77,0 181,-46 242,-271l1 -18 -8 -12c-125,-187 -214,-390 -23,-608 116,85 185,221 257,365 88,175 178,357 369,457l14 5 11 -2c94,-19 177,-29 252,-29 192,0 331,62 423,189l16 22 68 -34 -8 -26c-114,-383 -286,-748 -452,-1102 -119,-254 -242,-516 -342,-780 61,-60 151,-107 246,-158 239,-128 510,-273 349,-646 -112,-479 210,-670 583,-892 288,-171 585,-347 670,-674 376,-543 1001,-843 1762,-843 206,0 420,22 640,66l20 -1 12 -10c231,-203 552,-233 863,-263 401,-38 817,-78 1054,-486l2 -4 1 -4c21,-81 50,-123 85,-123 49,0 121,61 179,109 33,27 64,54 91,70 101,99 218,147 355,147 147,0 299,-56 446,-109 139,-51 282,-103 412,-103 127,0 232,51 322,156 113,138 257,202 455,202 105,0 214,-18 321,-35 102,-16 208,-34 306,-34 14,0 27,0 40,1 87,478 481,975 1056,975 41,0 83,-3 125,-8 120,214 187,475 252,728 133,522 271,1061 882,1234 -93,347 -12,771 204,1068 171,234 407,363 663,363 102,0 207,-20 313,-61 1,3 1,6 1,8 -4,41 -87,102 -161,156 -127,93 -272,199 -261,344l4 60 111 -46c117,-49 250,-104 360,-104 113,0 180,63 211,198l1 4 2 4c314,567 151,1104 -20,1672 -116,385 -236,783 -202,1197 -40,14 -83,22 -129,22 -111,0 -237,-41 -385,-126l-57 -33 -7 65c-25,215 49,442 196,607 121,136 278,214 432,214 159,0 303,-81 418,-234 707,-334 539,-935 390,-1466 -83,-298 -170,-606 -123,-877 146,-82 294,-176 437,-267 466,-295 948,-601 1482,-601 185,0 363,36 549,110 599,154 941,782 1016,1868l0 3 1 3c28,110 7,255 -15,409 -42,284 -90,606 218,740l16 4 12 -4c453,-165 743,-560 1026,-944 99,-135 202,-274 310,-400 57,-75 150,-118 256,-118 139,0 295,80 312,259 45,176 170,270 363,270 163,0 375,-65 631,-194l90 -45 -95 -34c-476,-172 -340,-646 -207,-1107 30,-103 58,-201 77,-292 109,-577 -262,-1052 -590,-1472 -34,-43 -66,-85 -98,-126 124,43 244,106 361,168 211,112 430,227 679,227 22,0 44,-1 70,-3 26,-4 52,-6 77,-6 283,0 444,252 614,519 181,285 369,579 724,585l50 1 -6 -49c-20,-162 15,-376 52,-603 81,-493 174,-1052 -315,-1231l-12 -3 -9 2c-128,24 -261,37 -393,37 -734,0 -1392,-357 -1727,-934 337,-124 704,-180 1059,-234 387,-59 788,-120 1153,-270l31 -13 -5 -34c-33,-218 90,-269 246,-334 144,-60 306,-128 305,-351 12,-278 131,-530 247,-774 82,-174 167,-353 216,-545l16 -64 -65 11c-50,8 -101,12 -152,12zm-3190 -824l0 0c96,-547 -395,-773 -832,-973 -161,-74 -314,-145 -440,-228 84,-207 189,-437 364,-609 34,5 70,7 108,10 114,8 231,17 282,81 28,35 35,86 24,162l-1 7 2 6c155,584 818,680 1350,757 64,9 126,18 184,28l-21 13c-356,217 -724,441 -1020,748z"/>
    <path fill="#444444" fill-rule="nonzero" d="M6386 7198c-25,89 -52,181 -46,273l4 67 59 -31c299,-154 629,-235 956,-235 128,0 258,12 387,37l4 1 4 0c28,-2 58,-9 88,-17 23,-6 47,-12 63,-13 -2,8 -5,20 -13,37l-13 28 23 21c207,192 262,468 169,843l-38 153 111 -112c364,-368 319,-1043 91,-1494l-7 -10 -8 -5c-257,-158 -556,-238 -888,-238 -321,0 -660,77 -978,222l-61 28 50 44c124,109 86,244 41,400z"/>
    <path fill="#444444" fill-rule="nonzero" d="M5910 9724c-48,397 126,698 480,827l63 23 -5 -67c-16,-198 82,-374 177,-544 105,-188 213,-382 175,-617l-7 -18 -14 -8c-58,-32 -118,-62 -177,-92 -188,-95 -382,-194 -536,-341l-24 -23 -28 17c-200,123 -388,376 -356,586 13,85 68,197 253,255z"/>
    <path fill="#444444" fill-rule="nonzero" d="M22504 28741l78 19c0,0 137,-380 201,-556 930,-2578 1891,-5244 3565,-7473 18,-35 35,-79 14,-115 -7,-12 -25,-32 -62,-32 -18,0 -40,5 -71,16l-9 3 -77 104c-1190,1611 -2421,3277 -2849,5267 -42,118 -84,237 -127,355 -275,766 -559,1558 -658,2383l-3 28z"/>
    <path fill="#444444" fill-rule="nonzero" d="M24234 23130c76,-225 248,-417 415,-603 253,-282 515,-573 458,-993l-13 -96 -63 73c-805,936 -1297,2158 -1774,3346 -76,190 -152,378 -229,563l-11 27 71 38 16 -24c471,-691 778,-1432 1130,-2331z"/>
    <path fill="#444444" fill-rule="nonzero" d="M30489 31562c-256,0 -559,259 -829,491 -100,86 -195,167 -274,222l-27 19 12 32c40,106 97,203 152,297 70,119 143,242 175,379l13 55 50 -27c299,-163 845,-504 1137,-961l6 -16 -3 -13c-72,-320 -207,-476 -411,-476z"/>
    <path fill="#444444" fill-rule="nonzero" d="M26889 34372c34,0 69,-11 102,-33l25 -16 -6 -29c-52,-243 -141,-476 -226,-702l-40 -107 -48 52c-124,136 -112,443 -23,644 55,124 132,192 217,192z"/>
    <path fill="#444444" fill-rule="nonzero" d="M21758 35208l134 36c105,29 244,43 413,43 399,0 897,-84 1059,-156l24 -11 -16 -73 -26 0c-29,0 -59,1 -88,1 -80,0 -160,-1 -241,-3l-9 0c-84,-2 -168,-3 -252,-3 -264,0 -573,14 -868,119l-131 46z"/>
    <path fill="#444444" fill-rule="nonzero" d="M43746 50133c-32,150 -116,263 -244,327l-71 11c-105,17 -204,32 -279,48l-28 6 6 78 28 2c20,1 40,2 59,2 117,0 222,-21 311,-63 404,-65 1149,-186 1317,-550 64,-140 41,-303 -72,-486l-8 -9 -8 -4c-297,-142 -598,-299 -890,-451 -1112,-580 -2262,-1180 -3516,-1180 -63,0 -122,2 -179,5l-7 0 -6 3c-1267,635 -2405,944 -3478,944 -183,0 -367,-9 -550,-27 -85,-45 -152,-67 -204,-67 -41,0 -75,14 -99,40 -54,58 -46,158 -38,257 2,33 5,64 4,89l-1 42 42 3c107,6 217,9 327,9 933,0 1846,-225 2731,-444 516,-127 1050,-259 1577,-344 1002,157 2147,381 3072,1052 174,209 251,479 203,706z"/>
    <path fill="#444444" fill-rule="nonzero" d="M24189 48043c-112,0 -222,6 -328,19l-34 4 -4 34c-76,692 -790,933 -1420,1146 -157,53 -304,103 -440,158l-26 11 19 76 28 -3c1075,-119 2163,-274 3214,-424l9 -1c591,-84 1203,-172 1805,-252l37 -5 1 -37c2,-109 -39,-248 -162,-309l-7 -3 -7 0c-450,-1 -898,-105 -1330,-206 -439,-102 -893,-207 -1355,-207z"/>
    <path fill="#444444" fill-rule="nonzero" d="M27601 49495c-251,-279 -587,-415 -1027,-415 -329,0 -676,73 -1012,144 -230,49 -448,94 -653,116 -404,39 -814,82 -1210,123l-6 1c-1366,143 -2779,291 -4174,291 -279,0 -552,-6 -813,-17l-31 -1 -11 29c-49,129 -91,266 -125,408l-13 53 54 0c115,1 229,2 344,2 2144,0 4223,-191 6179,-567 190,197 436,289 771,289 173,0 355,-24 530,-47 172,-22 350,-46 516,-46 62,0 119,3 172,9 21,3 43,5 66,5 117,0 278,-45 374,-145 56,-59 83,-128 79,-208l-3 -15 -8 -9z"/>
    <path fill="#444444" fill-rule="nonzero" d="M45771 49961c-50,-61 -137,-95 -237,-95 -113,0 -227,43 -297,112 -722,638 -1733,684 -2628,723 -39,-9 -75,-14 -106,-14 -65,0 -115,21 -148,62 -65,82 -43,228 -16,346l7 30 30 4c212,27 428,40 642,40 1104,0 2093,-344 2787,-970l9 -11 2 -11c16,-86 0,-161 -46,-216z"/>
   </g>
   <g>
    <path fill="#9E8059" fill-rule="nonzero" d="M21188 17165l44 -6 -7 -44c-45,-286 -215,-532 -394,-794 -241,-350 -491,-713 -414,-1182l5 -32 -30 -14c-504,-238 -634,-856 -750,-1403 -22,-105 -43,-204 -66,-298l-10 -39 -40 7c-54,9 -108,14 -160,14 -594,0 -874,-590 -967,-843l-11 -29 -45 0c-323,0 -679,-96 -1023,-189 -360,-97 -732,-198 -1087,-198 -358,0 -655,102 -907,313 -484,209 -1020,251 -1538,292 -747,59 -1519,120 -2137,685l-9 11 -2 10c-63,299 -336,476 -599,646 -336,218 -683,443 -589,921l1 4 2 4c93,200 -33,346 -167,502 -134,156 -287,333 -157,561 226,432 392,917 553,1387 150,436 291,848 476,1222l13 26 75 -28 -7 -28c-275,-1071 -429,-2608 398,-3845 1068,-1332 2829,-1650 4539,-1861 23,-1 46,-1 69,-1 1533,0 3103,1192 3652,2773l2 5 4 4c98,120 165,249 199,389l19 48c172,429 407,1017 955,1017 35,0 71,-3 107,-7z"/>
    <path fill="#9E8059" fill-rule="nonzero" d="M23521 18924l22 -146c63,-425 318,-762 565,-1087 47,-61 93,-123 138,-185l78 -107 -127 40c-321,102 -602,348 -733,641 -105,236 -107,481 -4,709l61 135z"/>
    <path fill="#9E8059" fill-rule="nonzero" d="M23790 18991c-104,249 -97,497 20,699l34 58 39 -55c182,-258 497,-534 836,-534 141,0 273,49 389,144 27,28 55,43 83,43 73,0 106,-89 108,-177 1,-98 -35,-197 -119,-202 -154,-44 -336,-89 -517,-89 -199,0 -366,55 -508,166 21,-242 187,-429 356,-601l109 -111 -151 39c-286,74 -553,318 -679,621z"/>
    <path fill="#9E8059" fill-rule="nonzero" d="M14405 21490c75,0 150,-12 222,-35 948,-102 2108,-439 2261,-1466l4 -25 -20 -16c-73,-58 -161,-100 -254,-122l-35 -8 -15 33c-252,570 -1144,1089 -1870,1089 -283,0 -667,-82 -889,-471l-46 -81 -32 87c-88,239 -56,495 88,702 137,196 355,313 586,313z"/>
    <path fill="#9E8059" fill-rule="nonzero" d="M24120 20475c-253,0 -463,-69 -642,-212l-25 -20 -26 18c-525,354 -1116,609 -1643,836l-15 11 -4 14c-25,84 -5,171 56,253 113,150 361,264 579,264 173,0 299,-70 353,-197l9 -22 -13 -20c-64,-93 -111,-241 -79,-301 4,-8 17,-32 72,-32 10,0 21,1 28,2 264,62 537,94 811,94 1019,0 1805,-420 2157,-1152l54 -112 -221 107c-430,210 -965,470 -1449,470z"/>
    <path fill="#9E8059" fill-rule="nonzero" d="M33118 21097l275 21c117,13 236,29 351,45l95 13c99,7 198,13 297,19 153,9 312,19 471,34 113,7 201,16 285,30 136,20 274,44 408,68l154 27 12 5c201,83 395,171 575,263 236,117 494,170 743,222l39 8 31 -66 -20 -16c-379,-305 -914,-410 -1344,-494l-25 -5 -14 -5c-1429,-530 -3020,-810 -4600,-810 -329,0 -662,12 -990,36 -344,50 -819,164 -968,571l-26 71 74 -13c543,-98 1139,-146 1824,-146 784,0 1581,62 2351,122z"/>
    <path fill="#9E8059" fill-rule="nonzero" d="M16952 21040l7 -24 -61 -37 -18 18c-562,556 -1367,704 -2145,848l-197 37 11 83 30 -2c340,-28 707,-57 1160,-90 163,-42 308,-85 441,-131l5 -2 4 -3c73,-57 157,-108 238,-159 218,-134 443,-273 525,-536z"/>
    <path fill="#9E8059" fill-rule="nonzero" d="M21563 22092c158,103 355,232 519,232 99,0 228,-48 282,-282l0 -18 -8 -12c-100,-145 -282,-200 -458,-254 -121,-37 -245,-74 -339,-140l-54 -38 -13 65c-22,108 -45,222 -54,340l-2 27 23 14c32,19 67,42 104,67z"/>
    <path fill="#9E8059" fill-rule="nonzero" d="M22820 21835c-28,193 -215,429 -396,658 -235,296 -456,575 -388,806 36,121 147,211 338,275l45 15 11 -46c55,-236 133,-470 210,-697 108,-321 219,-653 266,-998l4 -32 -86 -12 -4 32z"/>
    <path fill="#9E8059" fill-rule="nonzero" d="M21355 22833c117,174 225,210 294,210 123,0 222,-118 230,-274 8,-171 -95,-381 -412,-411l-40 -4 -16 89 -64 362 0 16 7 11z"/>
    <path fill="#9E8059" fill-rule="nonzero" d="M37582 26994l65 -40 -10 -25c-510,-1250 -1201,-2236 -2052,-2930l-9 -9c-38,-36 -76,-72 -114,-110l-2 -2 -3 -2c-86,-57 -172,-114 -258,-171l-14 -9c-138,-92 -275,-183 -417,-275l-15 -6 -13 2c-40,8 -78,12 -112,12 -76,0 -134,-20 -173,-59 -42,-43 -62,-110 -60,-201l0 -25 -21 -13c-935,-570 -2030,-647 -2977,-647 -272,0 -547,7 -816,13 -189,5 -376,9 -564,12l-4 0 -3 1c-184,43 -348,136 -506,225 -113,64 -231,130 -352,176l-32 12 4 34c15,128 88,195 208,195 73,0 155,-23 234,-46 66,-19 129,-37 174,-37l13 0 3 -1c599,-133 1186,-200 1745,-200 1418,0 2555,444 3290,1287 906,804 1812,1726 2771,2818l18 20z"/>
    <path fill="#9E8059" fill-rule="nonzero" d="M21153 23870l81 21 9 -29c15,-50 62,-114 112,-183 85,-116 172,-236 134,-333 -21,-54 -74,-89 -162,-106l-43 -9 -9 43c-32,159 -65,317 -99,477l-25 120z"/>
    <path fill="#9E8059" fill-rule="nonzero" d="M21771 23575l-32 -5 -14 29c-15,33 -41,77 -66,120 -89,156 -191,332 -130,437 27,47 81,71 161,71 41,0 90,-6 142,-18 11,1 21,1 31,1 138,0 225,-78 235,-208 13,-173 -128,-398 -328,-427z"/>
    <path fill="#9E8059" fill-rule="nonzero" d="M42028 24256l-21 -15 -54 51 14 22c416,674 449,1491 96,2302 -471,1078 -1550,1982 -2629,2204 -32,-32 -66,-66 -101,-101 -278,-281 -623,-631 -999,-631 -168,0 -326,72 -472,217l-8 10 -2 9c-57,264 -191,392 -408,392 -80,0 -172,-18 -273,-54l-64 -23 7 68c55,548 581,793 1078,793 131,0 263,-18 381,-53l5 -2 4 -3c69,-49 107,-103 116,-165 17,-110 -61,-211 -143,-319 -66,-86 -135,-176 -138,-262l0 -6 -3 -6c-37,-82 -35,-157 4,-217 45,-69 136,-114 232,-114 44,0 189,12 219,174l1 5 2 4c61,114 118,230 179,353 272,553 554,1125 1135,1383l5 2 5 0c55,4 110,6 165,6 1436,0 2386,-1471 2763,-2730l1 -5 0 -5c-4,-1217 -93,-2575 -1097,-3286z"/>
    <path fill="#9E8059" fill-rule="nonzero" d="M21523 24400l-32 0 0 13c-47,4 -100,17 -159,38l-9 3 -6 8c-139,187 -228,408 -308,618l-9 24 21 14c44,30 91,48 142,53l0 14 32 0c282,0 530,-365 530,-586 0,-59 -16,-106 -49,-141 -36,-38 -87,-58 -153,-58z"/>
    <path fill="#9E8059" fill-rule="nonzero" d="M5933 29016l-13 -5 -11 1c-177,17 -353,20 -487,20 -77,0 -154,-1 -232,-2l-13 0c-73,-1 -146,-2 -219,-2 -346,0 -714,17 -1069,142 -43,-9 -97,-13 -160,-17 -140,-10 -314,-22 -382,-101 -18,-21 -27,-45 -29,-74 1131,-377 2145,-1391 1808,-2543 -68,-186 -122,-394 -174,-595 -108,-414 -219,-842 -459,-1163l-97 -129 19 160c203,1742 -1517,3076 -3239,3447l-52 11 21 49c613,1399 2030,1602 3404,1800 284,41 552,79 812,128l62 12 -12 -63c-16,-84 -5,-119 7,-134 8,-9 25,-22 82,-22 24,0 50,2 78,4 30,2 60,4 90,4 73,0 176,-11 232,-106 33,-40 71,-59 114,-59 80,0 176,73 227,173 48,94 49,191 0,258l-33 46 53 20c40,15 76,23 107,23 66,0 115,-37 133,-100 74,-258 -366,-1054 -572,-1182z"/>
    <path fill="#9E8059" fill-rule="nonzero" d="M20148 26233c13,-85 26,-172 -26,-232 -34,-39 -88,-58 -166,-58 -19,0 -40,1 -67,4l-14 4 -8 8c-76,76 -153,152 -230,227 -77,76 -289,286 -289,286l82 15c249,45 493,88 737,123l18 2 138 -103 -82 -25c-118,-35 -112,-119 -92,-253z"/>
    <path fill="#9E8059" fill-rule="nonzero" d="M19478 26731c-271,0 -437,228 -600,452 -17,24 -34,47 -52,70l-15 20 45 56 23 -10c64,-29 130,-57 202,-87 239,-100 487,-204 660,-369l46 -44 -58 -27c-88,-40 -172,-61 -251,-61z"/>
    <path fill="#9E8059" fill-rule="nonzero" d="M18193 27298l-5 -1 -96 24 -3 1c-442,202 -882,372 -1308,506l-10 5 -6 6c-108,118 -208,246 -306,370l-130 165 110 -18c454,-75 869,-273 1270,-466 186,-89 378,-181 576,-261l10 -6 5 -8c65,-94 84,-171 58,-229 -23,-51 -79,-81 -167,-89z"/>
    <path fill="#9E8059" fill-rule="nonzero" d="M15309 28487l-15 3 -9 8c-792,691 -1763,779 -2521,779 -377,0 -767,-25 -1150,-49 -376,-24 -766,-48 -1141,-48 -282,0 -531,14 -761,42 -287,-150 -317,-465 -346,-770 -31,-330 -63,-670 -405,-825l-23 -10 -20 15c-232,166 -438,372 -638,571 -127,126 -257,257 -392,374l-20 17 6 26c138,584 315,1214 556,1984l8 26 28 3c941,110 2178,236 3406,236 499,0 981,-21 1432,-62 600,-79 1138,-347 1659,-607 333,-166 677,-337 1032,-456l28 -9 2 -29c18,-329 -10,-773 -245,-1024 -117,-126 -274,-190 -471,-193z"/>
   </g>
   <g>
    <path fill="#C3A57C" fill-rule="nonzero" d="M20336 20365c82,0 168,26 249,75 49,39 95,58 144,58 87,0 155,-63 221,-124 56,-52 114,-106 181,-117l35 -6 1 -35c16,-385 1,-776 -13,-1156 -24,-635 -49,-1292 71,-1932l11 -59 -59 8c-33,4 -65,6 -96,6 -489,0 -712,-557 -875,-963l-47 -118 -46 60c-759,986 -1853,1798 -3250,2414 -71,27 -138,41 -197,41 -104,0 -192,-42 -263,-125 -235,-274 -234,-920 -195,-1220 32,1 64,2 96,2 841,0 1568,-404 2272,-795 442,-245 899,-499 1378,-649l43 -13 -15 -42c-559,-1612 -2163,-2828 -3732,-2828 -24,0 -47,0 -75,1 -1731,214 -3513,536 -4603,1897 -846,1266 -691,2829 -412,3918l11 43 43 -13c773,-229 1545,-537 1955,-1235 65,-26 125,-39 180,-39 97,0 181,41 250,123 274,324 253,1143 214,1412 -513,312 -1151,328 -1769,344 -245,6 -498,13 -735,38l-42 4 4 42c25,300 62,619 164,918l14 40 41 -13c74,-24 148,-49 222,-73 560,-185 1139,-377 1734,-377 48,0 95,1 138,3 58,35 84,97 71,172 -13,80 -75,169 -170,185 -593,147 -1206,399 -1932,793 -15,9 -28,14 -40,14 -51,0 -97,-89 -128,-147 -30,-58 -52,-100 -93,-100 -58,0 -76,65 -98,248 -276,645 -77,1334 179,1984l29 73 46 -64c38,-52 81,-116 129,-186 224,-328 531,-778 780,-778 113,0 209,103 286,307l12 32 34 -5c328,-46 417,-300 488,-503 62,-178 107,-288 239,-288 76,0 175,34 305,104l26 14 45 -67 -23 -18c-226,-183 -318,-724 -222,-995 23,-65 67,-142 147,-142 15,0 31,3 49,8 193,328 523,501 956,501 739,0 1651,-525 1934,-1107 67,20 130,52 183,94 187,215 205,552 55,1001 -72,232 -283,362 -487,488 -83,51 -170,104 -246,164l-21 16 33 67 25 -7c352,-92 706,-199 1049,-302 176,-53 352,-106 530,-159l3 -1 3 -2c265,-147 480,-360 689,-567 68,-67 138,-137 209,-203 32,-5 61,-7 87,-7 116,0 129,48 133,64 31,121 -161,396 -306,477l-22 12 19 70 25 -1c81,-2 167,-4 264,-4 120,0 240,2 361,4l15 0c65,1 131,2 202,3l18 -4 10 -11c56,-62 113,-133 173,-210 200,-252 427,-538 701,-538zm-1295 -919l0 0c-509,0 -1053,69 -1620,204l-11 4 -6 6c-34,34 -69,52 -103,52 -86,0 -158,-113 -164,-210 -3,-53 12,-119 102,-129l4 0 4 -1c598,-227 1291,-381 2180,-483l6 -1 5 -3c64,-33 124,-50 178,-50 63,0 114,24 144,69 39,58 41,145 4,238l-17 43 44 14c56,18 129,31 206,44 166,29 393,69 434,173 19,47 -1,115 -57,196 -423,-110 -871,-166 -1331,-166z"/>
    <path fill="#C3A57C" fill-rule="nonzero" d="M24707 17335c-167,0 -339,35 -515,106l-10 6 -5 7c-45,62 -91,123 -138,184 -253,334 -515,680 -582,1134 1,158 32,323 66,497 70,361 142,735 -104,997l-32 34 37 29c193,153 427,231 696,231 504,0 1049,-266 1487,-479l118 -58 4 -5c456,-519 420,-1282 182,-1808 -248,-548 -698,-876 -1204,-876zm485 1923l0 0c0,0 -7,-2 -24,-19 -136,-111 -286,-167 -448,-167 -346,0 -667,258 -865,514 -73,-166 -67,-363 15,-562 117,-280 361,-504 624,-572 76,-25 150,-38 219,-38 134,0 250,50 326,140 90,107 122,266 90,447l-9 50 50 1c24,1 43,54 42,115 -1,59 -18,88 -20,91z"/>
    <path fill="#C3A57C" fill-rule="nonzero" d="M20530 20846c10,-71 -28,-144 -118,-222l-17 -15 -22 6c-121,32 -226,154 -338,283 -63,73 -127,148 -193,202l-49 47 64 25c31,12 89,35 119,47l24 9 19 -16c43,-36 116,-69 193,-105 149,-69 302,-140 319,-261z"/>
    <path fill="#C3A57C" fill-rule="nonzero" d="M35118 23098l22 -19 -9 -27c-138,-406 -465,-461 -767,-461 -120,0 -245,10 -367,20 -119,10 -241,20 -355,20 -92,0 -171,-7 -239,-20 -33,-83 -37,-148 -11,-187 33,-51 124,-77 268,-77 102,0 214,12 322,23 93,10 180,19 249,19 67,0 148,-8 172,-68 24,-59 -16,-131 -138,-248 -130,-229 -320,-336 -599,-336 -143,0 -295,28 -443,54 -141,25 -286,52 -417,52 -78,0 -145,-9 -204,-28 -5,-63 7,-112 38,-151 84,-106 300,-122 491,-136 203,-15 379,-28 428,-141 35,-81 -4,-186 -130,-343l-9 -11 -296 -23c-772,-60 -1570,-122 -2358,-122 -690,0 -1292,48 -1844,148l-15 6 -8 11c-412,580 -299,1482 242,1932l19 16 24 -9c128,-48 248,-116 364,-181 152,-86 310,-174 477,-215 184,-2 371,-7 563,-11 265,-6 539,-13 810,-13 935,0 2015,75 2932,634l4 2 16 6 13 -3c90,-23 202,-23 311,-23 175,0 340,0 443,-89z"/>
    <path fill="#C3A57C" fill-rule="nonzero" d="M21060 21731l28 17 24 -23c88,-84 120,-174 96,-269 -47,-184 -291,-313 -445,-354l-22 -6 -18 15c-85,75 -124,152 -115,229 17,152 211,258 367,343 31,17 60,33 85,48z"/>
    <path fill="#C3A57C" fill-rule="nonzero" d="M34358 21483c183,0 293,-111 296,-296l0 -40 -40 -4c-159,-15 -318,-25 -477,-35 -97,-6 -195,-12 -292,-19l-72 -5 29 66c79,177 338,333 555,333z"/>
    <path fill="#C3A57C" fill-rule="nonzero" d="M35637 21541c138,20 281,41 410,83l28 9 32 -76 -27 -13c-182,-93 -378,-182 -586,-267l-49 -13 -130 -23c-134,-24 -273,-48 -410,-68l-126 -18 89 91c207,213 493,254 769,294z"/>
    <path fill="#C3A57C" fill-rule="nonzero" d="M20722 22267c48,0 89,-20 117,-57 24,-32 37,-74 37,-122 0,-138 -113,-331 -363,-331l-32 0 0 13c-37,2 -75,8 -113,19l-34 9 12 33c30,84 62,170 97,257l2 6 4 4c89,91 170,143 240,156l0 14 32 0z"/>
    <path fill="#C3A57C" fill-rule="nonzero" d="M35361 22370l-12 -46c-99,-383 -403,-650 -740,-650 -65,0 -131,10 -197,29l-59 17 36 50c187,260 443,617 818,617 35,0 71,-3 107,-9l46 -8z"/>
    <path fill="#C3A57C" fill-rule="nonzero" d="M14642 22352c355,-172 721,-350 1100,-482l27 -9 -16 -77 -28 2c-441,32 -807,61 -1156,90l-51 8 -15 6 -8 10c-86,113 -236,194 -381,273 -233,126 -496,269 -480,569l3 59 55 -21c326,-125 643,-279 950,-428z"/>
    <path fill="#C3A57C" fill-rule="nonzero" d="M35449 21772l-80 -29 23 82c179,622 781,694 1331,713l51 2 -7 -51c-71,-510 -508,-573 -894,-629 -147,-21 -299,-43 -424,-88z"/>
    <path fill="#C3A57C" fill-rule="nonzero" d="M42037 24265l-4 -6 -6 -4c-1753,-1152 -3471,-1968 -5106,-2425l-120 -34 74 101c144,197 214,469 282,732 129,499 262,1015 908,1015 35,0 73,-2 115,-5l17 -5 9 -11c87,-109 14,-303 -63,-509 -66,-175 -141,-374 -80,-462 26,-37 77,-56 160,-58 153,148 191,367 229,580 22,122 44,249 87,362 30,186 207,250 364,307 186,67 299,116 277,270 -9,57 -33,80 -86,80 -53,0 -123,-23 -185,-44 -60,-20 -116,-38 -160,-38 -47,0 -71,21 -83,39 -29,45 -17,117 39,242 6,50 17,111 29,181 41,229 102,575 -5,704 -30,36 -70,52 -128,52 -28,0 -60,-4 -94,-13 0,-56 0,-115 0,-174 2,-421 4,-897 -250,-1152 -121,-122 -284,-181 -499,-181 -40,0 -83,2 -126,6l-30 3 -8 29c-48,181 48,414 150,660 124,301 253,612 104,810 -264,-113 -339,-449 -418,-803 -97,-436 -207,-930 -745,-939l-33 -1 -9 31c-31,104 38,271 126,483 97,232 217,521 134,650 -31,48 -90,74 -179,80 -100,-139 -154,-341 -211,-556 -110,-415 -224,-843 -698,-861l-55 -2 10 53c41,218 30,364 -35,449 -38,50 -99,79 -180,85l-109 8 85 69c841,686 1524,1662 2031,2901l2 5 3 4c91,104 153,387 117,466 -4,10 -7,10 -9,10 -6,0 -38,-4 -118,-85l-5 -6 -7 -2c-70,-23 -137,-35 -196,-35 -150,0 -264,69 -337,205 -175,324 -54,952 112,1204l10 10 10 4c110,39 212,59 302,59 257,0 422,-150 490,-447 125,-120 259,-181 400,-181 340,0 671,335 937,605 41,42 81,82 118,118l17 16 22 -5c1113,-220 2230,-1149 2714,-2259 366,-838 329,-1685 -105,-2386z"/>
    <path fill="#C3A57C" fill-rule="nonzero" d="M21489 22426c-102,-142 -189,-171 -243,-171 -93,0 -165,84 -179,210 -20,177 79,383 306,434l44 10 18 -92 64 -362 0 -17 -8 -11z"/>
    <path fill="#C3A57C" fill-rule="nonzero" d="M35313 22793c111,177 237,377 475,377 8,0 16,0 25,-1l45 -3 -5 -45c-33,-301 -260,-501 -578,-510l-87 -3 50 71c25,35 49,73 74,113z"/>
    <path fill="#C3A57C" fill-rule="nonzero" d="M36114 22733l-47 5 10 46c88,430 524,511 874,575l119 22 -3 -55c-18,-397 -275,-607 -745,-607 -65,0 -136,4 -208,13z"/>
    <path fill="#C3A57C" fill-rule="nonzero" d="M13244 22895l-126 47c-225,83 -341,242 -317,437 31,250 282,471 573,503l24 3 15 -19c89,-111 165,-234 239,-352 117,-189 239,-385 412,-529l10 -9c115,15 186,46 204,92 38,97 -127,290 -259,444 -96,112 -186,217 -221,302 -79,105 -104,189 -78,255 42,105 198,130 364,157 179,29 364,59 397,177 -79,137 -177,268 -273,395 -121,161 -245,327 -337,512l-26 53 58 9c24,4 48,6 75,6 69,0 136,-13 201,-26 60,-12 122,-24 182,-24 9,0 17,0 25,1 -79,468 339,684 710,876 112,58 218,113 302,169 75,64 144,95 210,95l0 0c140,0 226,-130 318,-267 54,-82 110,-167 175,-213l84 -60 -102 -18c-30,-5 -63,-8 -102,-8 -103,0 -226,17 -356,36 -141,20 -287,41 -418,41 -266,0 -388,-84 -403,-279 24,-2 50,-3 79,-3 92,0 190,9 300,20 107,10 218,21 324,21 217,0 482,-39 605,-342l18 -75c149,-608 333,-1364 -188,-1823l-19 -17 -24 9c-95,34 -189,51 -281,51 -335,0 -625,-238 -756,-620 -45,-150 -135,-227 -266,-227 -126,0 -269,71 -395,134 -50,25 -98,49 -140,66l-23 9 0 3 -15 5c-73,24 -181,72 -296,122 -217,96 -487,215 -614,215 -28,0 -41,-6 -44,-12 -2,-5 -20,-50 100,-228l76 -112z"/>
    <path fill="#C3A57C" fill-rule="nonzero" d="M21356 23206c-134,-150 -282,-236 -405,-236 -94,0 -258,50 -295,387l-11 413 54 -1c155,0 304,66 431,191l41 41c0,0 41,-76 49,-91 8,-15 24,-47 24,-47l20 -98c33,-158 66,-316 99,-478l5 -51 -2 -18 -9 -10z"/>
    <path fill="#C3A57C" fill-rule="nonzero" d="M11860 23036c-77,0 -258,42 -266,430l0 7 3 7c6,14 11,38 16,62 13,67 33,168 125,168 6,0 11,0 22,-2 36,-10 72,-15 109,-15 101,0 209,38 320,112l38 25 23 -40c83,-143 76,-321 -20,-489 -90,-156 -242,-266 -370,-266z"/>
    <path fill="#C3A57C" fill-rule="nonzero" d="M4502 24692l-1 -3c-133,-441 -481,-851 -1064,-1252l-4 -3 -5 -1c-158,-44 -322,-66 -487,-66 -982,0 -1804,746 -2185,1488 -525,1308 20,2667 393,3362l15 29 32 -7c1759,-379 3516,-1750 3307,-3544l0 -3z"/>
    <path fill="#C3A57C" fill-rule="nonzero" d="M35475 23927c53,-149 45,-275 -25,-373 -80,-113 -238,-178 -435,-178 -92,0 -188,15 -278,42l-89 27 78 51c137,89 275,181 412,272 91,60 181,121 272,180l46 30 19 -52z"/>
    <path fill="#C3A57C" fill-rule="nonzero" d="M12603 23747l-27 23c-116,96 -159,212 -126,334 58,213 331,385 502,414l5 1 17 -1 11 -8c118,-86 175,-171 172,-258 -5,-148 -178,-257 -346,-362 -67,-42 -130,-81 -179,-121l-28 -22z"/>
    <path fill="#C3A57C" fill-rule="nonzero" d="M20648 23978l-42 -4 -5 42c-24,200 -59,434 -132,666l-2 18 7 12c60,102 130,154 206,154 159,0 278,-232 289,-449 13,-249 -111,-418 -322,-439z"/>
    <path fill="#C3A57C" fill-rule="nonzero" d="M13667 25073l18 -2 11 -10c196,-191 274,-370 220,-503 -34,-83 -133,-181 -413,-181 -13,0 -26,0 -42,1l-12 2 -8 5c-162,113 -234,259 -197,400 40,154 204,267 417,288l5 0z"/>
    <path fill="#C3A57C" fill-rule="nonzero" d="M12185 24354l46 123c98,262 239,464 419,600l48 36 20 -56c103,-295 -188,-482 -381,-605l-152 -98z"/>
    <path fill="#C3A57C" fill-rule="nonzero" d="M13109 25143c-108,0 -204,74 -269,210l-10 21 12 20c95,156 209,308 350,464l26 29 31 -23c158,-116 218,-289 161,-464 -49,-149 -176,-256 -302,-256z"/>
    <path fill="#C3A57C" fill-rule="nonzero" d="M20411 25152c-146,0 -295,175 -338,332 -33,123 -2,223 86,275l3 2 13 5 10 -1c227,-25 300,-231 359,-397 10,-28 20,-56 30,-82l8 -21 -12 -19c-41,-61 -96,-94 -160,-94z"/>
    <path fill="#C3A57C" fill-rule="nonzero" d="M19384 25491l-31 5c-104,18 -208,36 -311,54l-10 2c-398,68 -809,139 -1211,224l-111 24 99 56c411,235 875,384 1274,498l27 8 40 -48c184,-217 413,-488 250,-795l-15 -28z"/>
    <path fill="#C3A57C" fill-rule="nonzero" d="M13579 26101c157,0 305,-220 305,-353 0,-39 -11,-70 -33,-94 -24,-26 -58,-39 -102,-39l-32 0 0 14c-8,1 -17,3 -26,5l-14 3 -7 12c-64,110 -107,238 -137,403l0 34 13 1 0 14 32 0z"/>
    <path fill="#C3A57C" fill-rule="nonzero" d="M17298 26563l21 -22c188,-198 279,-464 359,-699l21 -61 -64 3c-538,29 -974,63 -1370,107l-27 3 -4 77 27 6c225,49 411,183 592,314 131,94 266,192 418,260l28 13z"/>
    <path fill="#C3A57C" fill-rule="nonzero" d="M14471 26199c-31,-137 -140,-222 -286,-222 -11,0 -22,0 -39,3l-6 1 -5 3c-142,85 -217,240 -186,386 27,130 132,219 281,237l3 0 12 0 8 -4c192,-90 248,-273 218,-405z"/>
    <path fill="#C3A57C" fill-rule="nonzero" d="M16470 26380c-80,-44 -155,-86 -207,-123l-28 -20 -26 22c-145,125 -209,239 -195,351 23,190 269,313 508,433 107,54 208,105 285,159l29 21 26 -24c113,-105 164,-212 151,-318 -26,-215 -312,-373 -543,-501z"/>
    <path fill="#C3A57C" fill-rule="nonzero" d="M18363 26415c-157,-57 -319,-115 -482,-162l-24 -7 -18 17c-187,181 -177,342 -135,445 82,204 375,363 667,363 303,0 503,-165 536,-441l4 -37 -36 -10c-173,-48 -344,-109 -512,-170z"/>
    <path fill="#C3A57C" fill-rule="nonzero" d="M15224 27357l12 -3 8 -6c196,-162 278,-333 236,-492 -64,-246 -390,-388 -654,-436l-14 0 -10 5c-189,97 -269,249 -226,429 61,251 370,506 613,506 10,0 20,0 33,-2z"/>
    <path fill="#C3A57C" fill-rule="nonzero" d="M15834 26985l-21 -5 -17 14c-232,201 -336,387 -319,570 20,210 194,399 565,615l19 11 65 -28 3 -2c293,-212 430,-449 386,-667 -47,-234 -295,-419 -680,-509z"/>
    <path fill="#C3A57C" fill-rule="nonzero" d="M17722 27123c-97,-51 -198,-104 -300,-153l-26 -12 -22 20c-249,229 -462,531 -617,874l-40 88 93 -29c427,-135 870,-306 1315,-509l89 -41 -90 -39c-137,-59 -271,-130 -402,-199z"/>
    <path fill="#C3A57C" fill-rule="nonzero" d="M14816 27771l6 3c39,20 77,41 113,61l25 14 43 -60 -12 -18c-152,-232 -342,-522 -656,-535l-63 -3 21 60c84,245 308,363 524,477z"/>
    <path fill="#C3A57C" fill-rule="nonzero" d="M14443 27906l-22 24 17 -28c-59,-54 -118,-108 -177,-159l-16 -14 -21 4c-569,120 -1176,178 -1857,178 -934,0 -1884,-111 -2804,-218l-13 -1c-112,-13 -224,-26 -342,-39 -21,0 -81,-28 -122,-47 -58,-27 -109,-51 -145,-51 -24,0 -43,10 -54,29 -19,32 -2,70 19,106l8 11 10 4c296,134 324,436 355,755 31,332 64,676 408,847l12 4 10 -1c230,-29 480,-43 764,-43 373,0 762,24 1139,48 379,24 770,49 1151,49l0 0c773,0 1765,-91 2578,-801l64 -56 -83 -19c-327,-75 -608,-332 -880,-582z"/>
   </g>
   <g>
    <path fill="#DDDDDD" fill-rule="nonzero" d="M37903 13566l-32 0 0 12c-43,2 -92,10 -145,22 -136,29 -261,137 -299,257 -20,62 -25,157 62,251l3 3 4 2c34,20 72,33 113,37l0 13 32 0c107,0 227,-54 329,-149 96,-89 155,-197 155,-282 0,-50 -22,-167 -222,-167z"/>
    <path fill="#DDDDDD" fill-rule="nonzero" d="M35612 14767l-31 31c-102,102 -263,181 -419,258 -298,146 -605,297 -605,633l0 25 21 13c52,31 115,46 186,46 320,0 793,-328 922,-637 56,-135 40,-251 -45,-337l-31 -31z"/>
    <path fill="#DDDDDD" fill-rule="nonzero" d="M40772 16681l-24 -3 -98 119c-54,65 -108,131 -163,195l-21 25 18 27c101,152 219,184 301,184 157,0 308,-131 318,-274 9,-143 -114,-245 -331,-273z"/>
    <path fill="#DDDDDD" fill-rule="nonzero" d="M42145 17121c-18,-173 -200,-336 -373,-336 -81,0 -191,35 -261,200l-14 33 30 20c116,78 221,189 321,338l16 25 29 -6c172,-37 266,-139 252,-273z"/>
    <path fill="#DDDDDD" fill-rule="nonzero" d="M39169 18319c-29,-70 -69,-166 -171,-166l-6 0 -5 2c-56,20 -113,40 -169,61l-206 74 10 49c23,109 57,273 192,297l4 1 13 0 9 -4c93,-44 185,-90 277,-136l118 -59 -30 -41c-14,-19 -26,-48 -38,-77z"/>
    <path fill="#DDDDDD" fill-rule="nonzero" d="M3915 19565c-53,-216 -210,-335 -442,-335 -131,0 -279,41 -408,113l-54 30 46 40c249,217 270,472 244,646 -49,328 -300,647 -626,793 -169,77 -344,218 -530,367 -269,217 -548,440 -790,440 -167,0 -306,-110 -424,-337l-39 -76 -38 76c-227,457 -48,975 111,1432l37 105 47 -32c43,-29 85,-59 128,-89 168,-118 342,-240 530,-334 183,-103 362,-225 534,-344 374,-257 760,-522 1220,-597 40,-9 78,-14 114,-14 131,0 236,63 305,181 122,209 117,562 -10,786 -123,196 -345,288 -559,378 -42,17 -83,35 -123,52l-104 46 108 35c518,167 1158,436 1510,1041l10 11 11 4c102,38 206,83 308,128 264,116 536,237 835,237l0 0c35,0 70,-2 104,-5l56 -5 -19 -53c-610,-1667 -1229,-3283 -2093,-4722z"/>
    <path fill="#DDDDDD" fill-rule="nonzero" d="M7150 25274c109,0 191,-59 245,-178l4 -16 -4 -12c-645,-1875 -1375,-3871 -2334,-5756l-13 -26 -75 31 9 28c273,867 539,1647 811,2373 -281,-427 -579,-825 -889,-1185l-18 -21 -66 40 10 25c462,1137 913,2301 1351,3430l23 60c126,325 252,651 380,981l11 16 15 4c54,16 118,48 187,83 118,60 240,122 353,122l0 0z"/>
    <path fill="#DDDDDD" fill-rule="nonzero" d="M6828 23016c158,394 321,801 485,1201l20 48 44 -28c74,-48 148,-97 222,-147l26 -17 -8 -30c-44,-159 -28,-298 43,-392 63,-83 167,-129 293,-129 67,0 139,13 212,38l91 31 -37 -89c-62,-149 -111,-319 -163,-499 -117,-403 -238,-821 -519,-1050l-17 -8 -15 3c-84,18 -171,28 -258,28 -335,0 -699,-149 -713,-569l0 -5 -2 -5c-40,-116 -36,-209 11,-276 60,-84 195,-132 369,-132 63,0 128,7 188,19l80 17 -31 -76c-20,-48 -39,-98 -60,-150 -90,-227 -183,-461 -329,-657l-16 -22 -27 5c-75,15 -147,23 -214,23 -353,0 -562,-209 -803,-451 -106,-106 -216,-216 -347,-317l-20 -16 -56 46 11 23c572,1166 1064,2392 1540,3582z"/>
    <path fill="#DDDDDD" fill-rule="nonzero" d="M23803 28221l53 104 28 -114c50,-206 111,-412 171,-612l2 -6c45,-151 91,-308 134,-468l4 -15 -44 -58 -14 -12 -15 -1c-102,-6 -204,-12 -309,-16l-12 1 -8 4c-167,88 -207,313 -243,512 -8,46 -16,91 -26,135l-3 12 91 170c60,112 128,239 191,364z"/>
    <path fill="#DDDDDD" fill-rule="nonzero" d="M23706 28717l1 -4c5,-21 16,-63 23,-88l1 -18 -8 -12c-108,-164 -199,-320 -278,-479l-46 -91 -84 236c-121,339 -246,689 -300,1055l-1 7 2 7c15,53 30,105 45,158l2 6c23,79 47,160 67,241l9 37 114 -14 7 -29c84,-335 250,-647 411,-949l33 -63z"/>
    <path fill="#DDDDDD" fill-rule="nonzero" d="M22822 30617c-32,-79 -63,-158 -94,-238l-38 -98 -42 96c-157,354 -312,737 -386,1141l-5 28 24 16c90,58 190,105 308,144l42 14 13 -43c69,-231 150,-483 245,-770l1 -4 1 -14c1,-24 3,-59 4,-83l0 -7 -2 -6c-23,-58 -46,-116 -70,-176z"/>
    <path fill="#DDDDDD" fill-rule="nonzero" d="M25672 33378c-276,0 -623,139 -877,240l-6 2c-83,33 -155,62 -214,82l-29 10 22 80 29 -6c173,-36 398,-76 611,-76 377,0 623,126 753,384l9 17 -131 -2c-77,-1 -160,-2 -248,-2 -491,0 -1093,41 -1402,360 -140,144 -206,334 -199,564l2 52 51 -11c93,-21 190,-40 291,-60 624,-124 1332,-265 1661,-835l4 -7 1 2 10 -21 22 -38 -3 0 9 -18c34,-69 67,-141 95,-204l19 -42 3 -11 -1 -9c-28,-294 -196,-450 -484,-450z"/>
    <path fill="#DDDDDD" fill-rule="nonzero" d="M24183 33895l-11 -71 -25 -3c-37,-4 -75,-6 -114,-6 -222,0 -512,64 -600,246 -54,111 -24,242 90,388l49 63 26 -76c79,-229 268,-408 562,-533l23 -10z"/>
    <path fill="#DDDDDD" fill-rule="nonzero" d="M15261 45874c-184,0 -369,12 -549,23 -179,11 -364,23 -545,23 -81,0 -161,-2 -250,-7l-8 0 -7 3c-290,126 -598,263 -903,417 -203,137 -435,230 -659,321 -4,2 -8,3 -12,5 77,-43 147,-106 195,-184 73,-117 84,-239 34,-340 -452,-1519 -895,-3069 -1323,-4568l-4 -14c-515,-1804 -1048,-3669 -1603,-5498 -398,-1029 -751,-2096 -1092,-3127 -404,-1219 -821,-2480 -1314,-3684 -70,-233 93,-421 238,-588l16 -19 15 -23 -9 -23c-24,-59 -258,-100 -375,-100 -198,0 -248,85 -254,156l-1 6 2 6c912,3024 1827,6093 2711,9060 756,2536 1537,5159 2314,7741 130,310 77,641 25,962l-1 6c-6,40 -13,80 -19,124l0 16 7 10c57,88 141,134 242,134 30,0 61,-5 91,-13 -61,25 -123,51 -184,79l-10 6 -5 7c-166,232 -255,503 -340,765 -76,233 -155,474 -287,682 -371,118 -765,176 -1204,176 -498,0 -1046,-75 -1728,-235 -9,-1 -17,-1 -26,-1 -153,0 -260,143 -286,284 -23,122 8,274 167,336 287,77 587,115 917,115 595,0 1195,-125 1775,-246 244,-51 496,-103 744,-146l3 -1 3 -1c126,-51 254,-103 383,-154 1333,-535 2843,-1142 3668,-2384l37 -55 -65 -12c-157,-28 -328,-42 -524,-42z"/>
   </g>
   <g>
    <path fill="#D4AE7B" fill-rule="nonzero" d="M40623 14387c-262,-410 -621,-654 -960,-654 -143,0 -283,42 -417,124l-108 66 126 14c165,18 308,136 348,286 33,123 -14,242 -130,326 -821,666 -1734,1244 -2616,1804l-9 6c-202,128 -403,256 -605,386l-3 2 -3 3c-80,83 -185,127 -306,127 -172,0 -350,-93 -441,-231 -72,-108 -83,-235 -32,-356l56 -133 -120 80c-321,213 -326,538 -331,853 -5,294 -10,598 -285,804l-22 17 6 27c25,114 46,234 70,360 75,411 153,836 331,1139l31 53 39 -47c120,-144 238,-299 365,-465 564,-739 1204,-1577 2195,-1596l6 0 5 -2c1104,-426 2050,-1418 2812,-2947l11 -22 -13 -21z"/>
    <path fill="#D4AE7B" fill-rule="nonzero" d="M21138 34914c-23,-260 -46,-528 -175,-753 -37,-88 -77,-176 -116,-265 -281,-631 -571,-1283 -358,-1967l2 -12 -2 -9c-7,-28 -8,-89 -9,-154 -3,-199 -7,-473 -189,-473 -16,0 -31,2 -49,7l-4 1 -4 2c-1745,1102 -2495,3550 -1671,5460 412,724 867,1336 1352,1820l41 41 28 -51c160,-296 313,-605 461,-904 301,-608 612,-1237 1006,-1801l21 -31 -27 -25c-247,-231 -275,-549 -305,-887z"/>
   </g>
   <path fill="#FFE1AE" fill-rule="nonzero" d="M35940 16962c-200,0 -407,-108 -514,-270 -88,-133 -102,-289 -40,-437l3 -7 6 -5c1056,-895 2340,-1879 3860,-2391l7 -2 7 1c203,21 378,165 427,350 43,160 -16,312 -161,417 -823,667 -1738,1247 -2623,1808 -204,129 -407,258 -609,388 -95,98 -220,149 -364,149z"/>
   <g>
    <path fill="#B38A57" fill-rule="nonzero" d="M40614 14377l-42 -36 -25 49c-751,1507 -1678,2483 -2756,2902 -1026,23 -1678,876 -2253,1630 -111,145 -217,283 -323,414 -150,-286 -221,-677 -290,-1055 -23,-127 -45,-247 -70,-363l-18 -84 -57 64c-661,749 -1343,1607 -1920,2416l-44 61 75 7c503,48 1006,156 1493,261 98,21 197,43 296,63l22 5 16 -15c351,-330 647,-734 934,-1125 431,-589 878,-1197 1505,-1543 1180,-71 1944,-930 2684,-1761 141,-158 286,-321 432,-476 33,-41 69,-85 107,-131 288,-346 723,-870 234,-1284z"/>
    <path fill="#B38A57" fill-rule="nonzero" d="M31118 23385c-18,-1 -35,-1 -53,-1 -828,0 -1279,689 -1715,1355 -216,331 -440,673 -704,914l-18 16 4 24c100,551 296,1290 655,1682l34 37 32 -39c358,-448 717,-894 1077,-1341l13 -16c687,-853 1398,-1735 2083,-2611l56 -72 -201 3c-416,7 -846,14 -1263,49z"/>
    <path fill="#B38A57" fill-rule="nonzero" d="M30881 27944l-6 -1 -6 1c-358,81 -563,397 -761,704 -79,123 -154,239 -241,345l-5 6 -2 8c-48,239 59,714 267,967 91,111 190,167 295,167 138,0 273,-101 402,-302 193,-368 647,-1229 428,-1659 -67,-132 -192,-212 -371,-237z"/>
   </g>
   <g>
    <path fill="#BABABC" fill-rule="nonzero" d="M40802 16700c-129,-188 -269,-228 -364,-228 -168,0 -316,130 -323,284 -3,63 17,269 402,308l23 2 15 -17c58,-68 114,-137 171,-206l96 -116 -18 -27z"/>
    <path fill="#BABABC" fill-rule="nonzero" d="M38757 17888c-143,0 -275,85 -302,194 -14,59 -9,173 187,275l4 2 17 5 13 -5c53,-19 106,-38 159,-57 60,-22 120,-43 180,-64l30 -11 -1 -32c-8,-189 -119,-307 -288,-307z"/>
    <path fill="#BABABC" fill-rule="nonzero" d="M7381 21743c30,0 58,-2 83,-7l33 -6 3 -33c12,-149 -40,-302 -140,-410 -87,-95 -203,-147 -325,-147 -43,0 -88,6 -135,20l-12 6 -6 8c-82,100 -101,203 -57,298 79,167 351,271 557,271z"/>
    <path fill="#BABABC" fill-rule="nonzero" d="M7247 22062c93,0 186,-10 276,-30l149 -33 -144 -51c-80,-28 -164,-50 -253,-73 -299,-78 -609,-159 -744,-481l-10 -24 -74 16 1 27c15,479 423,650 799,650z"/>
    <path fill="#BABABC" fill-rule="nonzero" d="M3665 21994c-5,-114 -72,-230 -208,-230 -37,0 -76,9 -114,26 -605,223 -1123,623 -1625,1009 0,0 -145,112 -210,162 -121,37 -229,182 -238,320 -6,95 38,170 122,204l5 2 17 3 13 -6c354,-163 681,-379 998,-589 314,-208 638,-422 983,-581 178,-20 265,-176 258,-321z"/>
    <path fill="#BABABC" fill-rule="nonzero" d="M1720 22396l17 -20 -46 -59 -23 12c-192,95 -368,219 -539,339 -42,30 -85,60 -127,89l-29 20 13 32c20,51 61,79 113,79 183,0 521,-376 621,-492z"/>
    <path fill="#BABABC" fill-rule="nonzero" d="M3167 22871l-42 101 100 -44c39,-18 80,-34 121,-52 227,-95 462,-193 599,-412l82 -130 -138 68c-7,3 -665,332 -722,469z"/>
    <path fill="#BABABC" fill-rule="nonzero" d="M8151 24314c47,0 100,-14 160,-45 82,-58 112,-156 79,-261 -44,-137 -193,-285 -359,-285 -50,0 -96,14 -137,41l-5 3 -14 14 -1 16c-8,140 17,341 116,446 44,47 99,71 161,71z"/>
    <path fill="#BABABC" fill-rule="nonzero" d="M6811 26909l4 -13 -2 -10c-118,-792 -382,-1643 -807,-2601l-13 -29 -31 3c-32,3 -64,5 -96,5 -281,0 -545,-116 -801,-229 -102,-45 -207,-91 -312,-130l-109 -40 57 102c349,628 559,1328 763,2005 31,105 63,209 94,311 255,1010 143,1697 -344,2100l-22 18 43 67 26 -12c633,-310 1183,-858 1551,-1545z"/>
    <path fill="#BABABC" fill-rule="nonzero" d="M7601 23983l-51 35c-73,50 -146,98 -220,146l-25 17 7 30c72,306 178,623 282,930 310,923 631,1877 129,2774l-13 23 57 49 21 -16c383,-301 735,-704 1048,-1196l3 -6 1 -7c73,-453 -32,-901 -133,-1334 -55,-236 -112,-480 -139,-720l-4 -35 -34 -4c-466,-51 -799,-177 -910,-626l-15 -60z"/>
    <path fill="#BABABC" fill-rule="nonzero" d="M7593 28129c61,-69 86,-166 75,-290 273,-785 178,-1744 -275,-2774l-39 -89 -40 89c-38,84 -90,123 -164,123 -93,0 -205,-57 -315,-113 -72,-36 -139,-71 -201,-88l-83 -24 85 225c352,923 790,2072 -111,2787 -182,49 -410,355 -394,491 6,53 44,85 100,85 49,0 113,-24 198,-72l7 -4 4 -6c125,-187 380,-195 628,-202 214,-6 416,-12 526,-137z"/>
    <path fill="#BABABC" fill-rule="nonzero" d="M11921 46600l42 6 6 -42c6,-39 12,-79 19,-119l1 -6c54,-333 109,-677 -29,-1005 -776,-2582 -1557,-5203 -2312,-7737 -884,-2966 -1798,-6033 -2711,-9060l-17 -57 -49 33c-221,152 -375,473 -240,728 579,1939 1181,3968 1712,5758l5 16c1065,3588 2165,7297 3272,10935 7,31 13,67 20,107 29,175 69,414 281,444z"/>
    <path fill="#BABABC" fill-rule="nonzero" d="M26151 33813l-40 -84 -56 124c-28,63 -61,134 -93,200 -11,20 -32,61 -41,79 -309,536 -997,673 -1603,794 -101,20 -199,40 -290,60 -33,5 -66,10 -100,15l-6 1c-33,5 -66,9 -99,15l-58 10 26 53c55,110 177,294 373,294 28,0 57,-4 81,-11 146,-24 299,-44 447,-63l6 -1c570,-74 1160,-150 1649,-467l22 -14 -3 -26c-36,-362 -77,-685 -215,-978z"/>
    <path fill="#BABABC" fill-rule="nonzero" d="M13938 45995l25 -11 -21 -75 -27 3c-41,5 -85,10 -130,14 -323,33 -689,70 -803,429l-31 98 92 -47c300,-152 606,-287 894,-413z"/>
    <path fill="#BABABC" fill-rule="nonzero" d="M15922 45924c-54,-3 -102,-6 -141,-9l-26 -2 -14 21c-811,1220 -2308,1821 -3628,2352 -129,52 -257,103 -383,155l-27 11 23 77 29 -6c1564,-314 3570,-818 5217,-1936l9 -8 4 -9c56,-131 55,-246 -4,-340 -161,-258 -722,-288 -1059,-306z"/>
   </g>
   <g>
    <path fill="#918575" fill-rule="nonzero" d="M21183 20360c-5,-52 -11,-103 -17,-151l-6 -44 -44 7c-92,15 -160,78 -226,139 -56,52 -108,101 -162,101 -28,0 -57,-13 -94,-42 -100,-60 -200,-91 -299,-91 -315,0 -556,303 -769,571 -59,74 -115,145 -170,205l-60 66 89 7c111,8 225,22 336,35l108 13 17 -1 10 -9c70,-57 137,-135 202,-211 90,-105 184,-213 273,-249 52,50 76,93 71,128 -11,75 -148,138 -270,195 -82,38 -159,74 -211,116l-35 29 31 34c151,165 275,370 378,627l14 36 37 -10c44,-12 86,-18 125,-18 191,0 276,143 276,245 0,28 -7,54 -19,70 -11,15 -27,22 -48,22 -32,0 -102,-18 -218,-136l-18 -19 -63 41 10 24c157,378 232,804 222,1265l-1 31 84 5 3 -30c13,-114 56,-306 208,-306 99,0 223,76 341,207l62 69 13 -91c19,-126 38,-252 59,-378l7 -40 -40 -9c-186,-42 -254,-206 -239,-340 7,-64 39,-133 93,-133 28,0 88,18 173,136l60 83 28 -156c5,-154 11,-289 18,-411 10,-113 31,-225 53,-330 29,-139 62,-285 101,-447l11 -46 -47 -7c-381,-55 -425,-470 -459,-803zm-109 1280l0 0c-18,-10 -38,-21 -58,-32 -131,-71 -310,-169 -322,-276 -5,-43 18,-89 69,-139 136,43 328,155 361,285 14,55 -2,108 -50,162z"/>
    <path fill="#918575" fill-rule="nonzero" d="M17750 21283c279,-84 562,-124 851,-160l6 -1 5 -3c164,-91 394,-398 348,-574 -13,-48 -57,-129 -217,-129 -34,0 -72,3 -117,11l-12 4 -7 7c-76,70 -150,144 -222,215 -203,201 -414,410 -669,551l-25 14 31 74 28 -8z"/>
    <path fill="#918575" fill-rule="nonzero" d="M17178 21153l4 3 4 2c23,10 48,16 72,19l0 13 32 0c96,0 196,-51 274,-140 71,-80 115,-183 114,-268 0,-122 -82,-194 -218,-194l-32 0 0 13c-6,0 -22,2 -22,2l-3 1c-134,46 -289,181 -315,327 -11,60 -4,147 90,223z"/>
    <path fill="#918575" fill-rule="nonzero" d="M38930 23762c-148,-53 -287,-103 -309,-244l-1 -3 -1 -3c-41,-108 -63,-232 -84,-351 -41,-232 -83,-473 -271,-643l-9 -8 -24 0c-117,0 -196,31 -241,95 -86,124 -7,336 70,542 58,155 124,330 85,409 -28,2 -55,3 -82,3 -578,0 -692,-440 -824,-950 -70,-270 -142,-550 -299,-764l-3 -5 -53 -35 -64 -41 -21 -4c-244,-50 -496,-102 -728,-217 -136,-45 -282,-66 -424,-86 -262,-38 -533,-77 -722,-271l-11 -8 -10 -2c-86,-15 -176,-24 -293,-31l-45 -3 -1 45c-2,174 -115,210 -209,210 -183,0 -410,-134 -475,-281l-10 -22 -117 -16c-109,-15 -234,-32 -353,-45l-104 -11 65 82c120,150 129,219 116,251 -28,65 -202,78 -355,89 -208,15 -444,33 -552,168 -50,63 -68,144 -53,243l4 25 24 9c75,28 160,42 259,42 139,0 288,-27 432,-53 143,-26 291,-53 427,-53 249,0 412,92 528,298l2 4 3 3c127,122 124,158 124,158 0,0 -14,15 -92,15 -64,0 -150,-9 -241,-19 -110,-12 -224,-24 -331,-24 -181,0 -289,37 -341,116 -46,70 -42,165 12,290l9 20 21 5c79,18 171,27 280,27 117,0 241,-10 362,-20 120,-10 244,-20 360,-20 263,0 547,45 674,373 -82,51 -219,51 -363,51 -114,0 -231,0 -332,26l-32 8 -1 33c-2,114 26,203 85,263 55,56 134,85 235,85 40,0 83,-5 133,-14 82,-25 169,-38 253,-38 168,0 301,51 364,141 52,74 57,173 14,294l-9 26 20 19c37,37 75,73 114,110l11 11 15 10 14 -1c107,-8 188,-48 242,-118 74,-97 95,-248 61,-462 366,47 466,426 564,793 62,232 120,451 239,604l14 17 22 -1c131,-4 223,-44 272,-121 108,-167 -17,-467 -127,-731 -63,-150 -127,-305 -127,-392 437,30 528,438 624,870 83,373 169,759 502,877l27 9 19 -21c214,-238 70,-587 -69,-924 -90,-218 -175,-425 -152,-576 30,-2 59,-3 86,-3 191,0 334,51 438,155 229,230 227,688 225,1091 0,71 -1,141 0,208l1 32 30 9c55,17 105,25 150,25 82,0 148,-28 194,-83 134,-160 70,-515 24,-777 -12,-70 -23,-131 -30,-182l-1 -5 -2 -4c-62,-137 -49,-166 -49,-166l0 0c0,0 3,-1 12,-1 30,0 82,17 133,34 68,23 146,48 213,48 96,0 157,-55 172,-154 32,-232 -162,-302 -334,-364zm-3722 -1461l0 0c-312,0 -548,-304 -710,-528 37,-7 75,-11 112,-11 282,0 542,219 642,537 -15,1 -29,2 -44,2zm178 445l0 0c-8,-13 -16,-26 -24,-39 211,35 359,174 399,376 -173,-15 -271,-171 -374,-337zm117 -865l0 0c113,31 238,49 359,67 374,54 729,105 811,503 -497,-20 -987,-90 -1171,-570zm1464 1394l0 0c-327,-60 -696,-128 -793,-461 52,-5 102,-7 149,-7 405,0 619,154 654,469l-10 -2z"/>
    <path fill="#918575" fill-rule="nonzero" d="M20698 23682l-46 1 -21 134c-11,66 -21,132 -30,199l-6 44 45 5c236,24 249,252 244,349 -10,203 -119,366 -203,366 -43,0 -89,-39 -132,-111l-48 -82 -30 90c-160,476 -718,676 -1125,823l-47 17 24 44c136,255 -72,501 -239,699l-4 5c-387,-111 -833,-256 -1231,-484l-11 -4 -9 0c-65,2 -129,5 -194,9l-29 2 -9 27c-74,217 -158,463 -319,645 -132,-64 -255,-152 -374,-238 -188,-136 -382,-276 -628,-328l-4 -1 -4 0c-65,4 -131,10 -199,17l-11 3 -7 5c-78,56 -138,147 -197,236 -78,118 -151,229 -245,229 -45,0 -96,-24 -158,-77 -92,-62 -200,-117 -315,-177 -355,-184 -757,-392 -656,-827l10 -44 -45 -8c-27,-5 -55,-7 -84,-7 -68,0 -135,13 -200,26 -60,12 -122,24 -182,24 85,-156 193,-301 299,-442 100,-133 204,-271 289,-422l5 -14 -2 -11c-32,-192 -266,-230 -472,-263 -134,-22 -273,-44 -297,-104 -14,-35 9,-95 70,-176l3 -3 2 -4c30,-74 117,-176 210,-285 162,-190 330,-386 274,-532 -31,-80 -122,-128 -280,-148l-9 -1 -58 27 -3 3c-185,154 -310,356 -431,551 -68,109 -138,222 -218,325 -269,-40 -451,-244 -473,-424 -18,-150 75,-275 256,-343 204,-32 380,-136 557,-249l21 -14 -1 -25c-13,-245 194,-357 435,-488 153,-83 311,-169 408,-297l57 -74 -94 5c-17,1 -34,1 -51,1 -224,0 -451,-74 -714,-233 -142,-77 -255,-115 -346,-115 -200,0 -261,176 -320,346 -67,192 -136,390 -385,440 -90,-219 -209,-329 -354,-329 -295,0 -617,471 -854,819 -46,67 -88,129 -126,180l-13 18 6 21c50,163 128,317 231,458l75 102 3 -127c3,-127 31,-340 181,-340 97,0 221,93 295,222 71,124 85,253 40,362 -112,-67 -222,-101 -327,-101 -44,0 -88,6 -132,18l-46 12 17 45c137,365 318,639 540,818l41 27c200,128 426,273 345,507l-1 4 0 5c-9,179 151,316 221,367l42 31 23 -47c51,-105 116,-161 191,-161 90,0 182,83 220,197 45,138 -4,275 -130,367l-33 24 21 34c273,437 623,861 961,1271l154 187 14 11 14 1c270,11 446,280 591,500l4 5 4 3c319,253 671,393 992,393 22,0 43,-1 69,-3l5 0c0,0 88,-40 102,-46l20 -8c98,-38 201,-74 293,-106 133,-46 270,-94 407,-153l13 -9 5 -11c146,-322 345,-607 575,-826 91,44 182,92 270,138 131,69 267,141 411,203l10 4 107 -27 4 -2c442,-247 864,-550 1255,-902 64,-63 128,-126 191,-189l39 -38c77,-76 153,-152 232,-229 94,-105 185,-191 278,-264l50 -39 -55 -32c-67,-40 -62,-118 -46,-177 34,-124 152,-268 254,-268 34,0 63,18 88,55l27 41 37 -33c410,-360 526,-871 638,-1365l5 -24 -17 -17c-143,-141 -313,-216 -492,-216zm-7750 747l0 0c-145,-33 -370,-179 -415,-348 -22,-81 2,-153 72,-222 47,35 102,69 159,105 148,93 302,189 305,291 2,54 -38,111 -121,174zm702 555l0 0c-167,-22 -292,-108 -322,-221 -26,-101 29,-210 152,-300 8,0 15,0 23,0 178,0 299,47 332,128 38,92 -32,239 -185,394zm577 1536l0 0c-107,-17 -175,-76 -195,-167 -22,-107 32,-222 135,-288 6,0 12,-1 17,-1 155,0 193,118 202,154 21,96 -20,230 -159,302zm973 752l0 0c-3,0 -6,0 -9,0 -206,0 -478,-226 -529,-439 -33,-137 23,-246 168,-325 249,49 518,181 567,370 32,124 -34,256 -197,394zm878 820l0 0 -7 5c-334,-197 -490,-364 -507,-540 -14,-149 75,-306 273,-482 338,83 554,242 593,436 37,183 -88,389 -352,580zm750 -980l0 0c-77,-50 -170,-97 -268,-146 -217,-109 -441,-221 -459,-365 -9,-74 37,-157 141,-252 52,34 118,70 188,109 212,117 477,263 498,435 9,70 -24,142 -99,220zm1544 -126l0 0c-259,0 -517,-136 -587,-309 -54,-133 20,-253 98,-333 153,45 306,100 454,154 156,56 316,114 479,161 -40,209 -200,328 -444,328z"/>
   </g>
   <g>
    <path fill="#899A95" fill-rule="nonzero" d="M28340 21153c61,0 124,4 188,12l33 4 13 -30c27,-65 66,-130 107,-201 106,-179 215,-364 142,-576l-11 -31 -32 2c-63,3 -127,6 -191,8 -485,20 -986,42 -1450,214l-10 5 -5 7c-1317,1628 -2382,3689 -3350,6486l-19 55 58 2c101,4 203,10 304,16l29 2 13 -26c202,-411 380,-846 551,-1267 374,-918 761,-1867 1436,-2633 200,-216 380,-488 554,-752 421,-638 857,-1297 1641,-1297z"/>
    <path fill="#899A95" fill-rule="nonzero" d="M22242 26651l9 -9 3 -10c523,-1650 1334,-3210 2117,-4719l173 -334 -88 17c-250,47 -509,55 -761,63 -73,2 -146,4 -218,8l-35 1 -6 34c-265,1466 -723,2773 -1361,3885 -787,932 -1839,1604 -2765,2139l-37 22 21 37c469,818 975,1911 1344,2710l120 259 75 -24 -5 -28c-166,-870 -138,-1820 81,-2747 305,-510 789,-885 1257,-1248l74 -58z"/>
    <path fill="#899A95" fill-rule="nonzero" d="M27488 23872l-19 21 53 59 23 -16c130,-91 313,-163 491,-232 318,-124 647,-253 754,-513l27 -67 -72 7c-441,43 -864,292 -1258,740z"/>
    <path fill="#899A95" fill-rule="nonzero" d="M30140 31080c-919,-2105 -1869,-4282 -2405,-6614l-12 -53 -49 23c-275,130 -590,288 -849,517l-4 3 -19 30c-95,153 -194,311 -165,513 389,2339 1245,4578 2089,6672l18 45 43 -23c486,-259 1078,-615 1351,-1075l11 -19 -9 -20z"/>
    <path fill="#899A95" fill-rule="nonzero" d="M23689 27817l-123 -232 -42 89c-68,144 -139,293 -160,459l0 13 4 9c81,162 173,322 283,488l43 65 70 -149c45,-97 92,-196 138,-302l5 -12 -25 -61c-63,-123 -128,-246 -192,-365z"/>
    <path fill="#899A95" fill-rule="nonzero" d="M19234 28500c-119,-246 -254,-524 -568,-524 -7,0 -13,0 -25,2l-5 1 -5 2c-58,27 -118,55 -180,84l-19 9c-618,289 -1387,650 -2098,650 -35,0 -69,-1 -103,-3l-56 -3 12 55c58,274 83,558 108,832 14,151 28,307 47,461l7 56 52 -20c285,-113 588,-209 881,-302 735,-233 1496,-475 2076,-1001l28 -25 -21 -31c-46,-69 -87,-152 -129,-241z"/>
    <path fill="#899A95" fill-rule="nonzero" d="M23145 29462c-15,-52 -31,-104 -45,-157l-30 -107 -51 99c-201,392 -327,759 -375,1093l0 11 3 8c31,81 63,162 98,247 22,55 45,111 67,167l43 110 38 -112c80,-234 148,-475 215,-714l2 -7c34,-122 69,-245 106,-369l2 -11 -2 -9c-21,-84 -46,-168 -70,-251z"/>
    <path fill="#899A95" fill-rule="nonzero" d="M22328 31489l-44 -29 -20 49c-226,561 -384,1156 -538,1737 -49,186 -99,371 -150,556l-10 37 44 19c80,34 163,70 249,97l36 11 16 -34c188,-405 308,-840 423,-1261 90,-328 183,-668 309,-990l17 -43 -44 -14c-110,-36 -205,-80 -288,-134z"/>
   </g>
   <g>
    <path fill="#AFBCB8" fill-rule="nonzero" d="M28806 32140c-842,-2089 -1696,-4323 -2083,-6652 -24,-169 66,-314 153,-454l30 -48 -51 -52 -22 13c-153,94 -303,178 -468,178 201,-266 453,-497 697,-721 165,-151 336,-307 491,-474 379,-431 783,-670 1201,-711l62 -6 -27 -56c-317,-655 -393,-1373 -214,-2023l13 -48 -50 -6c-68,-8 -135,-13 -199,-13 -830,0 -1279,679 -1713,1336 -180,272 -350,530 -546,741 -685,777 -1075,1734 -1452,2659 -171,419 -347,852 -549,1261l-12 24 50 63 3 3c167,127 252,321 334,509 81,185 165,377 327,514l102 86 -32 -130c-91,-369 -21,-560 54,-655 64,-81 156,-124 267,-124 224,0 529,181 668,580l9 26 77 -16 -2 -28c-16,-237 -61,-472 -104,-701 -53,-276 -107,-562 -109,-843 70,-157 242,-265 421,-265 69,0 297,22 324,300 40,389 119,779 196,1157 132,648 268,1319 207,1991 -83,157 -190,236 -319,236 -246,0 -538,-276 -736,-483l-78 -81 5 176c8,287 21,721 -167,914 -64,66 -151,100 -257,100 -33,0 -69,-3 -107,-10 -351,-331 -559,-778 -760,-1210 -156,-336 -318,-684 -548,-983l-45 -58 -29 67c-44,101 -92,204 -135,296l-39 86c-6,21 -17,64 -23,89l-1 14 4 10c81,197 175,397 265,590l3 6c233,496 474,1010 531,1538 -130,138 -252,208 -362,208 -338,0 -553,-635 -710,-1098 -31,-91 -63,-185 -92,-261l-12 -32 -108 13 -8 27c-37,124 -72,250 -107,375 -66,233 -133,475 -214,712l-1 4 0 4c-2,22 -4,67 -5,92l1 13 5 8c84,135 108,281 67,409 -41,128 -144,233 -297,298l-14 10 -5 13c-127,326 -221,668 -312,999 -111,405 -226,823 -402,1212 -70,-24 -139,-54 -206,-82l-107 -46 43 100c85,198 435,268 710,268 350,0 796,-115 919,-438 812,-138 1763,-322 2674,-644 38,-17 77,-26 114,-26 159,0 270,154 316,285l14 40 40 -13c886,-289 1701,-663 2424,-1110l31 -19 -14 -34z"/>
    <path fill="#AFBCB8" fill-rule="nonzero" d="M21043 28176c53,-124 159,-190 305,-190 95,0 208,26 336,78l37 15 18 -36c167,-337 335,-799 515,-1412l38 -129 -177 138c-476,369 -968,750 -1282,1280l-3 4 -1 5c-224,942 -253,1907 -85,2791l19 99 59 -82c210,-291 303,-642 393,-982 41,-153 83,-311 135,-459l9 -25 -18 -19c-274,-286 -416,-799 -298,-1076z"/>
   </g>
   <path fill="#B65680" fill-rule="nonzero" d="M17277 23449c798,-371 1477,-551 2078,-551 352,0 683,63 984,187l90 37 -33 -92c-24,-67 -41,-152 -59,-241 -48,-241 -108,-541 -369,-541 -66,0 -140,20 -222,58 -849,103 -1661,389 -2447,666 -318,112 -647,228 -975,330l-40 13 12 41c174,602 305,1487 -53,2284l-33 74 80 -14c228,-40 460,-76 684,-110 893,-138 1817,-282 2653,-688l33 -16 -10 -35c-124,-425 -400,-632 -843,-632 -390,0 -831,165 -1186,297l-65 24c-63,19 -124,28 -180,28 -207,0 -361,-135 -414,-361 -61,-263 29,-618 315,-757z"/>
   <path fill="#D879A3" fill-rule="nonzero" d="M20354 23445c-249,-152 -543,-220 -951,-220 -155,0 -313,9 -466,18 -148,9 -288,17 -428,18l-3 0 -3 1c-370,73 -1236,244 -1191,923l3 50 49 -10c169,-36 346,-87 533,-141 381,-109 774,-222 1139,-222 466,0 800,196 1023,598l15 26 30 -5c230,-36 242,-409 251,-709 3,-110 7,-214 20,-282l6 -30 -26 -16z"/>
   <g>
    <path fill="#52667E" fill-rule="nonzero" d="M40224 46616c-492,-1034 -965,-2097 -1422,-3125 -503,-1131 -1023,-2300 -1571,-3435 -416,-1260 -1399,-2172 -2350,-3053l-173 -161c-622,-561 -1189,-1197 -1737,-1813 -647,-727 -1317,-1479 -2083,-2112l-27 -23 -28 23c-1012,825 -2281,1480 -3672,1897l-12 6 -6 8c-545,695 -1612,827 -2554,943 -192,24 -374,46 -548,73 -227,-94 -474,-142 -734,-142 -802,0 -1525,458 -1800,1140l-41 102 100 -47c762,-355 1571,-702 2364,-702 316,0 616,58 891,173l7 3 8 -1c758,-71 1482,-284 2093,-615l6 -3 4 -5c591,-750 1681,-1216 2844,-1216 158,0 315,9 465,27 667,108 1227,515 1769,909 219,159 445,323 672,463 321,320 664,635 997,941 1140,1048 2319,2131 2886,3622 398,1186 952,2326 1487,3429 575,1183 1169,2407 1571,3688l13 42 42 -14c288,-99 509,-284 592,-498 65,-168 47,-344 -52,-523z"/>
    <path fill="#52667E" fill-rule="nonzero" d="M36714 48358c-81,0 -164,7 -245,14 -78,7 -160,14 -237,14 -23,0 -44,-1 -64,-2 -794,-1465 -1357,-3166 -1721,-5204 -12,-42 -25,-85 -37,-128l-2 -7c-102,-356 -218,-760 -535,-986l-11 -6 -9 0c-884,-39 -1505,-660 -2107,-1262 -221,-221 -450,-449 -687,-644 -476,-373 -791,-903 -1095,-1416 -217,-366 -442,-745 -722,-1059l-19 -22 -27 9c-1006,339 -1987,511 -2916,511 -306,0 -610,-19 -903,-56 -24,-4 -49,-5 -72,-5 -252,0 -417,188 -580,373 -42,48 -82,93 -124,135 -75,81 -153,163 -231,245l-10 11c-843,890 -1798,1899 -1761,3191l0 6 2 5c443,1116 941,2230 1423,3306l7 16c287,641 584,1304 866,1963 14,27 18,49 12,66 -16,42 -94,72 -165,100 -50,20 -98,38 -133,64l-74 53 87 24c175,49 354,123 544,200 343,141 698,286 1042,286 205,0 384,-51 550,-155l29 -18 -11 -32c-453,-1338 -1304,-2514 -2128,-3653 -528,-730 -1074,-1484 -1502,-2267 33,7 65,11 95,11 97,0 175,-36 232,-108 161,-199 108,-613 75,-793 166,44 173,233 180,433 7,204 14,415 212,452l28 5 16 -23c702,-1031 1726,-1783 2716,-2511l9 -7c202,-149 411,-302 613,-455l70 -53 -84 -23c-184,-52 -384,-79 -596,-108 -483,-66 -982,-134 -1261,-508 788,144 1690,292 2540,292 586,0 1078,-68 1504,-209 23,93 -5,196 -32,296 -39,143 -83,306 28,448 1098,1507 2556,2655 4079,3795l4 3 4 2c26,10 49,14 70,14 32,0 59,-12 77,-34 47,-57 26,-166 2,-293 -19,-97 -44,-230 -11,-269 4,-5 13,-13 36,-13 1,0 1,0 2,0 582,1875 1036,3772 1487,5713l1 6 3 5c286,435 746,472 1192,472 59,0 118,-1 177,-2 59,-1 117,-1 175,-1 101,0 232,2 358,17l145 17 -112 -93c-121,-101 -265,-146 -466,-146z"/>
   </g>
   <path fill="#7589A1" fill-rule="nonzero" d="M37128 48574l-4 -3c-105,-87 -232,-126 -411,-126 -78,0 -159,7 -238,14 -80,7 -163,14 -244,14 -34,0 -65,-1 -95,-4l-23 -2 -11 -20c-805,-1478 -1374,-3194 -1740,-5246 -11,-36 -23,-77 -35,-120l-3 -12c-97,-339 -207,-722 -489,-930 -910,-46 -1540,-676 -2149,-1285 -220,-220 -448,-448 -682,-639 -489,-383 -807,-920 -1115,-1439 -210,-354 -427,-721 -694,-1024 -1005,336 -1986,506 -2916,506 -309,0 -617,-19 -915,-57 -21,-3 -41,-4 -61,-4 -213,0 -365,173 -512,341 -42,48 -85,97 -129,141 -78,83 -159,169 -241,255 -830,877 -1770,1870 -1738,3120 440,1108 937,2219 1418,3293 291,650 590,1318 873,1978 25,47 30,93 15,134 -29,78 -123,115 -213,150 -46,18 -88,34 -116,54l-10 7 -16 1c-79,-8 -158,-12 -239,-12 -312,0 -639,57 -954,112 -319,56 -648,113 -965,113 -296,0 -552,-50 -781,-153l-8 -3 -8 -8c-555,-747 -915,-1609 -1264,-2442 -277,-663 -564,-1348 -945,-1970 -45,-86 -91,-170 -141,-258 -263,-469 -535,-953 -285,-1489 664,-1690 1353,-3326 2466,-4728l5 -6 7 -3c771,-361 1592,-714 2405,-714 326,0 633,59 911,176 738,-71 1442,-278 2037,-599 606,-766 1718,-1241 2905,-1241 161,0 322,9 478,28 689,111 1257,524 1807,923 221,160 446,324 673,463l3 2 3 3c324,322 667,637 999,943 1147,1054 2334,2145 2909,3656 397,1182 949,2319 1483,3418 577,1188 1173,2414 1576,3702l8 26 -19 19c-535,513 -1367,825 -2543,954l-13 2 -15 -8z"/>
   <g>
    <path fill="#999999" fill-rule="nonzero" d="M20517 48044l-6 -1 -6 1c-564,76 -1118,237 -1654,392 -493,143 -1002,291 -1517,372l-135 21 123 60c476,235 1001,354 1558,354 799,0 1666,-231 2728,-728l80 -37 -78 -40c-335,-173 -703,-306 -1093,-394z"/>
    <path fill="#999999" fill-rule="nonzero" d="M43134 49518l-22 -12c-916,-496 -1770,-748 -2540,-748 -64,0 -124,2 -186,5l-4 0 -4 1c-248,74 -539,124 -821,174 -369,64 -718,125 -958,233l-107 48 113 33c197,58 395,118 592,177 1028,311 2090,632 3181,730l10 1 28 -10c290,-109 729,-273 719,-607l-1 -25z"/>
   </g>
   <g>
    <path fill="#E6E6E6" fill-rule="nonzero" d="M38695 50960c-632,-156 -1284,-318 -1943,-318 -81,0 -158,2 -230,7 -453,-109 -959,-259 -1246,-656l-15 -13 -15 -1c-1424,-56 -2871,-59 -4272,-62l-13 0c-899,-2 -1829,-4 -2748,-20l-17 3 -10 10c-432,452 -1105,462 -1756,471 -298,4 -579,8 -843,53l-3 1 -3 1c-60,24 -117,36 -174,36 -147,0 -275,-82 -400,-162 -134,-86 -273,-175 -443,-175 -47,0 -95,7 -141,20 -1462,356 -3105,522 -5171,522 -865,0 -1729,-27 -2539,-55 -90,-26 -192,-42 -300,-60 -353,-56 -686,-109 -677,-482l1 -47 -47 2c-964,46 -1951,67 -2905,86l-7 0c-2240,46 -4556,94 -6792,478l-110 19 94 60c351,226 818,248 1270,270 239,11 464,22 678,62 5512,280 11495,416 18291,416 3912,0 8104,-42 13592,-137l29 -1 6 -81 -29 -5c-373,-61 -749,-154 -1113,-244z"/>
    <path fill="#E6E6E6" fill-rule="nonzero" d="M49354 50651c-664,-299 -1467,-319 -2244,-338 -340,-8 -661,-16 -972,-46l-30 -3 -13 28c-109,236 -344,365 -571,490 -141,77 -286,157 -406,263l-96 85 128 -9c387,-28 784,-44 1173,-61 1002,-42 2037,-86 3025,-327l123 -30 -115 -52z"/>
   </g>
   <g>
    <path fill="black" fill-rule="nonzero" d="M45930 49585c-1434,-1064 -3208,-1542 -4897,-2046 -265,-1859 -1679,-3467 -2321,-5263 -978,-1559 -1001,-3765 -2719,-4797 -1610,-1495 -3181,-3074 -4475,-4849 86,-590 -359,-1024 -546,-1539 774,-886 1195,-2231 681,-3341 -520,-622 -1416,-29 -1809,455 -81,210 -412,54 -235,-117 1225,-1401 2325,-2901 3525,-4337 123,-145 366,-161 510,-34 1233,857 2139,2086 3126,3198 -82,835 -215,1753 195,2527 519,594 1390,267 2027,404 1185,1694 3687,410 4228,-1207 612,-1923 55,-4632 -2021,-5464 -1881,-865 -3771,-1733 -5761,-2320 586,-619 1035,-1381 1717,-1904 484,-44 1211,-592 1551,-15 -746,295 36,1615 674,1062 390,-233 925,-300 1187,-693 1,-319 -213,-630 -406,-876 -347,2 -795,231 -852,-272 424,-337 896,-1236 1408,-759 -570,498 422,1040 874,804 387,-231 640,-630 954,-944 88,-605 -793,-786 -1169,-441 -1034,-316 479,-954 252,-1647 -293,-802 -933,-1561 -1784,-1776 -466,-128 -1268,814 -1372,72 -541,-153 -2118,339 -1404,1122 -252,192 -522,363 -779,548 49,-428 -430,-881 -836,-653 -443,283 -832,644 -1244,969 -203,347 182,879 592,762 -310,391 -482,868 -273,1350 -674,909 -1436,1756 -2110,2659 -1507,-199 -3128,-189 -4550,-378 55,-218 277,-282 393,-67 831,190 1681,-245 2342,-716 232,-607 -557,-396 -866,-600 38,-491 89,-992 -46,-1472 560,455 1342,1668 2117,1012 -451,-873 318,-1983 -368,-2713 -554,76 -1109,-135 -1599,-372 620,-2 1853,94 1736,-851 777,-555 940,-1656 1370,-2481 -155,-722 -1010,257 -1411,-110 -163,-163 -589,-173 -496,-484 398,-498 958,-846 1611,-885 384,-372 -174,-641 -491,-727 -748,-512 -1395,803 -2097,119 -689,-133 101,-677 -241,-1087 374,-321 890,-629 1385,-830 242,-258 994,-545 705,-1002 -751,-390 -1610,-777 -2450,-428 -317,-558 -903,-966 -1562,-933 460,-336 1152,60 1577,-384 315,-142 896,-576 436,-903 -1173,135 -2005,-1262 -3186,-772 257,-683 -213,-1283 -292,-1898 -614,-148 -1380,-56 -1889,372 -681,24 -1384,-163 -2052,49 -64,-409 -15,-847 -93,-1241 -801,-467 -1625,790 -2417,190 -508,-73 -645,734 -1184,589 -316,-317 -302,-889 -761,-1063 -606,-450 -1284,184 -1831,449 -660,634 -1963,477 -2200,1529 -365,-41 -164,-571 -471,-656 -298,-127 -560,413 -791,71 -344,-713 -2022,-926 -2167,-110 373,190 506,741 57,942 -638,-15 -567,702 -401,1112 -664,-224 -1349,-804 -2070,-420 -808,231 -230,1252 -361,1828 -185,475 575,494 391,956 -392,12 -714,-282 -1104,-252 -332,123 -433,563 -807,616 -444,100 -911,735 -370,1018 -324,243 -404,881 96,936 -222,465 -1393,946 -1076,1683 572,52 -25,687 408,791 454,52 970,376 1040,853 -262,286 -870,95 -840,659 326,685 -792,717 -468,1400 325,617 904,1308 1534,1407 -526,780 118,1904 1161,1372 -694,363 75,1037 319,1445 233,656 970,1 1420,93 226,375 591,726 1046,772 562,731 452,1786 33,2562 -133,2453 2012,4168 3143,6142 -1015,378 -2100,112 -3140,27 -424,-133 -981,-41 -1302,-400 0,-836 -61,-1691 -396,-2469 -317,-176 -255,-570 -215,-865 -277,-758 -451,-1588 -969,-2206 1,-915 -681,-1892 -1588,-2250 -842,-113 -1585,-773 -2467,-395 -1882,350 -4024,2128 -3226,4220 -50,487 489,399 632,704 -1456,1078 -1240,3198 -387,4592 413,1143 1522,1960 2721,2087 1097,97 2173,334 3257,525 1485,5104 3034,10203 4411,15331 -1202,768 -2637,1296 -3603,2366 -141,781 912,717 1397,704 2902,-310 5852,-885 8429,-2316 417,-240 1002,-793 385,-1220 -1609,-359 -3294,-175 -4926,-88 -1356,-4837 -2763,-9663 -4094,-14505 1833,123 3777,462 5544,-167 562,-97 1267,-758 1754,-295 1321,-180 2487,-861 3713,-1334 117,449 419,852 456,1319 -2002,1071 -2847,3693 -2231,5815 337,1016 1095,1807 1722,2636 -272,840 -738,1625 -1025,2468 -173,672 230,1313 488,1905 576,1337 1189,2659 1670,4033 -1498,459 -3084,666 -4562,1206 14,537 -501,749 -485,1292 -14,537 638,475 1012,585 2580,90 5201,148 7728,-467 458,-132 681,474 1164,279 839,-141 1979,136 2620,-536 -648,-2714 -2778,-4742 -3924,-7261 422,-1335 1933,-2123 2966,-3044 399,-309 949,-709 1450,-417 1601,1592 3216,3183 5004,4568 244,1342 552,2675 911,3991 141,800 1036,1358 619,2245 294,406 807,557 1272,669 1116,-68 2188,376 3284,555 1784,225 3675,755 5345,-170 312,-276 803,-370 987,-767 -71,-241 -79,-505 -203,-725zm-1192 -51l0 0c507,825 -1071,922 -1578,1029 -2088,107 -4095,-734 -6161,-977 -369,-191 -1083,49 -1162,-475 4,-160 -98,-481 279,-279 1426,149 2806,-290 4062,-920 1649,-73 3116,932 4559,1623zm-14835 -20517l0 0c297,-355 496,-921 976,-1029 809,118 137,1395 -93,1833 -519,811 -970,-363 -882,-804zm955 3032l0 0c-246,386 -699,714 -1119,943 -818,575 -1784,1050 -2773,1312 -254,168 -430,-528 -240,-737 835,-405 1912,-630 2684,-1255 423,-293 1221,-1263 1447,-262zm-1538 -4703l0 0c-355,-387 -545,-1115 -644,-1660 803,-734 1184,-2301 2441,-2257 457,-38 917,-43 1376,-51 -1042,1333 -2116,2646 -3173,3968zm-889 -2190l0 0c-24,-321 -144,-625 -166,-945 497,-108 885,-460 1379,-564 -264,376 -803,1071 -1212,1509zm10232 -6837l0 0c-517,-268 315,-651 339,-121 101,-1 118,153 170,225 205,260 -258,496 -349,171 -110,-19 -139,-178 -159,-275zm1098 413l0 0c1046,234 -1035,1512 -877,442 296,-140 601,-263 877,-442zm1789 -1730l0 0c211,-500 901,228 334,350 -165,223 -402,512 -724,440 -274,-350 186,-565 391,-791zm-1030 19l0 0c-760,-76 -152,-875 246,-296 647,84 68,768 -246,296zm-2787 -3389l0 0c734,-167 134,666 -220,454 -174,-189 34,-414 220,-454zm-3132 2057l0 0c-1,-483 713,-561 1011,-860 320,321 -634,1083 -1011,860zm212 2239l0 0c587,-440 14,-1257 613,-1655 1146,-970 2401,-1893 3843,-2379 526,-322 1035,76 1318,517 513,434 -49,979 -347,1354 -874,923 -1695,2140 -3092,2221 -1065,580 -1579,1852 -2459,2680 -595,-126 -1187,-268 -1793,-326 582,-816 1265,-1674 1917,-2412zm-4944 2609l0 0c1875,-137 3810,119 5569,771l45 12c450,88 963,193 1325,485 25,17 77,51 102,68 1803,504 3536,1396 5093,2419 1017,721 1075,2122 1079,3251 -382,1273 -1382,2807 -2883,2690 -689,-306 -956,-1094 -1289,-1715 -67,-364 -713,-208 -536,187 8,249 484,490 182,705 -540,155 -1334,-49 -1400,-704 -249,-379 -365,-1548 373,-1307 313,330 215,-284 68,-452 -870,-991 -1788,-1946 -2775,-2822 -1240,-1423 -3354,-1478 -5073,-1097 -175,-7 -543,233 -580,-74 -526,-437 -632,-1314 -234,-1874 138,-376 578,-491 934,-543zm-1087 -160l0 0c94,272 -149,509 -248,746 -190,687 -93,1414 216,2053 -158,385 -866,472 -1229,726 -399,431 -896,779 -1237,1261 215,33 399,-72 571,-178 244,-215 543,-369 837,-508 529,2300 1468,4469 2408,6621 -264,444 -846,798 -1334,1059 -755,467 -1571,831 -2415,1106 -72,-204 -258,-388 -489,-284 -872,308 -1785,492 -2689,645 -178,557 -1413,526 -1557,192 214,-765 389,-1550 687,-2288 72,-392 222,-767 383,-1131 54,-370 200,-743 371,-1077 62,-406 212,-796 348,-1182 20,-160 93,-310 161,-454 47,-201 61,-516 246,-614 790,-2282 1804,-4571 3343,-6473 514,-191 1080,-193 1625,-219zm-2458 14419l0 0c-610,396 -1387,411 -2086,525 -193,53 -331,-106 -409,-260 -107,-205 -190,-422 -272,-637 -342,-439 215,-596 586,-558 146,-49 296,-85 445,-121 409,-138 1448,-697 1524,89 141,297 179,638 211,963zm-3538 -430l0 0c401,-210 462,484 561,726 -206,92 -1046,219 -1443,111 -336,79 -238,-439 -315,-652 297,-329 824,6 1197,-184zm-1467 -1070l0 0c-501,365 -465,-758 -516,-1078 528,-2327 1392,-4565 2266,-6781 548,-1328 1064,-2814 1996,-3897 241,-357 870,-774 1181,-900 81,-29 102,-5 63,71 -1788,2380 -2758,5244 -3759,8007 -462,1514 -919,3023 -1232,4578zm-11905 -15965l0 0c-336,-176 -346,-653 -649,-839 -228,235 -158,463 -6,689 -193,715 -903,-405 -447,-727 424,-391 352,-1065 -66,-1436 42,623 -313,1105 -994,857 -518,-153 -243,-828 -223,-1216 -231,-233 -974,-115 -817,-678 488,-322 1308,-606 1249,-1317 -535,330 -1129,1005 -1810,779 141,-368 342,-736 257,-1146 148,-376 617,-350 881,-606 167,-232 1065,-1100 510,-1012 -159,498 -765,179 -894,-168 -367,-134 -503,-454 -447,-818 -468,-118 -222,-588 78,-773 898,-129 1274,-1005 1896,-1585 72,-164 -85,-75 -181,-68 -298,345 -749,535 -1040,900 -383,18 -350,-423 -328,-698 -14,-240 213,-506 -10,-703 54,-227 318,-207 496,-281 601,-932 2138,284 2736,-721 -427,180 -1106,119 -987,-482 -446,-311 -631,-1969 148,-1612 256,-380 734,175 1099,196 507,14 1302,309 1659,-145l-44 6c-340,40 -626,-211 -751,-510 -273,-391 737,-394 518,-859 -52,-359 -110,-1141 503,-834 542,-51 569,796 1061,540 575,-237 655,817 1233,729 310,-297 159,-850 595,-1048 661,-296 1484,-188 2037,-729 301,-263 942,-619 1224,-379 75,29 194,68 188,168 132,23 177,676 -8,696 -253,288 -485,853 68,548 403,-531 1291,-50 1602,-851 619,405 1170,-86 1797,-240 757,-102 130,1013 489,1355 415,131 666,-267 1033,-341 629,-206 1331,337 1910,-111 220,-95 820,-520 892,-79 631,560 85,1354 266,2017 522,-241 1350,-281 1754,43 144,66 281,147 414,234 229,112 469,208 692,335 -101,140 -459,172 -561,38 -779,-128 -1621,909 -1259,1508 283,-501 683,-75 1133,-83 610,77 578,1045 1276,762 509,-91 1427,-383 1604,291 -766,428 -1611,922 -2347,1275 560,299 492,1120 -272,1144 -475,2 -197,686 205,472 687,-208 1203,487 1882,358 375,-204 882,-515 1281,-344 -454,242 -1003,345 -1353,749 -15,1102 -1995,1121 -1781,2318 366,64 389,-794 900,-686 463,118 608,-555 1073,-387 420,121 794,397 1258,322 -116,458 -443,841 -464,1327 3,413 -622,215 -550,693 -709,292 -1538,240 -2258,522 416,768 1352,1122 2191,963 664,244 166,1268 232,1798 -684,-11 -722,-1200 -1423,-1098 -449,37 -791,-334 -1215,-426 357,485 882,1006 757,1666 -99,474 -475,1219 158,1447 -265,133 -826,372 -932,-48 -29,-314 -470,-388 -645,-157 -401,465 -713,1110 -1316,1329 -423,-184 -87,-783 -174,-1118 -49,-712 -235,-1696 -1048,-1905 -973,-392 -1746,342 -2518,771 -157,795 813,1841 -257,2336 -389,536 -1039,20 -974,-548 -80,-963 -499,-2060 112,-2922 -19,-247 552,-395 395,-558 -825,344 -1363,-651 -1143,-1347 -937,-230 -769,-1310 -1164,-1978 -599,96 -1082,-404 -1167,-961 -377,-37 -833,235 -1125,-121 -448,-526 -1074,362 -1541,-97 -126,-76 -339,-365 -424,-34 -406,695 -1364,259 -1907,735 -914,-184 -1892,-3 -2444,800 -184,726 -1468,690 -1256,1595 214,499 -390,545 -603,784 238,642 604,1242 802,1905 -171,-234 -461,-229 -719,-177zm3811 8498l0 0c-128,-142 -246,-294 -345,-457 -103,-76 -210,-194 -203,-329 -192,-146 -321,-358 -405,-581 -246,-198 -413,-501 -523,-796 -92,14 -84,-141 -112,-203 -99,-135 -176,-286 -224,-445 -243,-614 -455,-1313 -178,-1955 67,-561 103,155 340,9 608,-330 1244,-620 1920,-788 196,-33 295,-336 103,-441 -737,-41 -1434,224 -2122,448 -99,-291 -136,-602 -162,-908 831,-90 1805,59 2539,-399 67,-402 70,-1889 -714,-1558 -404,701 -1200,1009 -1937,1228 -389,-784 -598,-1784 -1030,-2609 -232,-407 533,-613 324,-1061 -159,-812 1040,-843 1189,-1548 1029,-940 2473,-452 3665,-969 883,-740 2043,88 3010,79 184,502 568,959 1174,857 143,580 216,1436 839,1729 -136,830 703,1321 808,1989 -193,1026 -16,2063 -59,3093 49,368 37,922 513,991 54,-29 110,-53 168,-72 565,-244 1133,-492 1645,-838 381,-405 51,-1032 50,-1524 -251,-557 194,-1128 711,-1291 1459,-587 2361,1514 1485,2510 -513,1067 -1871,1282 -2919,1035 -260,-34 -151,274 -66,399 76,121 228,262 152,417 -79,585 -342,1120 -475,1692 -236,1257 -977,2440 -2161,2995 -14,10 -41,30 -54,41 -75,150 -317,219 -462,263 -216,206 -564,318 -850,448 -175,140 -378,253 -595,312 -608,246 -1176,615 -1833,723 -171,20 -333,-6 -449,-135 -374,21 -742,-155 -1026,-382 -232,-132 -530,-244 -624,-518 -371,-453 -795,-949 -1108,-1450zm-1931 -6900l0 0c545,-401 1420,-281 1904,-878 252,-78 417,314 171,456 -565,458 -1399,298 -2075,423zm-3008 5304l0 0c-314,158 -381,-228 -368,-433 238,-157 599,271 368,433zm-830 -2540l0 0c-252,45 -807,-167 -541,-492 320,-93 565,199 541,492zm-731 -1525l0 0c175,235 273,527 384,798 -293,-61 -773,-1 -618,446 184,440 671,455 1022,579 387,315 464,1041 665,1529 -406,-140 -727,93 -605,535 121,488 492,609 948,658 76,682 384,1352 273,2042 -280,441 -625,858 -1036,1181 684,-1220 -122,-2526 -406,-3735 -658,-1603 -1263,-3229 -2027,-4786 283,-405 1172,307 1399,753zm-1702 -836l0 0c940,1848 1659,3796 2331,5750 375,853 588,1845 271,2749 60,677 -916,154 -1222,613 -468,262 -116,-371 139,-429 987,-775 437,-2042 80,-2987 -580,-1490 -1150,-2985 -1753,-4466 -219,-434 -487,-839 -726,-1261 -126,-497 829,-354 878,31zm-3997 3461l0 0c-155,-449 -359,-991 -131,-1450 389,-900 1261,-1674 2192,-1962 281,-157 698,-180 788,200 887,1477 1517,3149 2093,4722 366,826 670,1694 804,2590 -343,639 -873,1201 -1530,1523 629,-521 540,-1426 359,-2144 -242,-791 -457,-1599 -861,-2326 -335,-576 -927,-862 -1532,-1057 38,-92 481,-338 701,-447 211,-372 120,-1150 -456,-1019 -679,111 -1186,621 -1766,946 -152,176 -579,629 -661,425zm383 653l0 0c-199,-83 -52,-399 117,-445 575,-437 1146,-917 1832,-1170 325,-142 364,410 40,441 -705,323 -1285,850 -1989,1173zm4871 6789l0 0c-305,-24 -609,-69 -908,-135 -1514,-286 -3455,-237 -4185,-1903 -537,-1003 -827,-2238 -391,-3325 475,-925 1548,-1692 2620,-1397 436,301 886,708 1043,1227 353,472 423,1185 627,1747 352,1204 -789,2168 -1810,2497 -23,286 446,227 616,269 656,-235 1346,-94 2021,-160 240,150 870,1369 366,1180zm6745 16135l0 0c120,-381 570,-372 896,-414 618,44 1245,-107 1857,3 358,29 1416,11 1168,595 -1541,1046 -3391,1564 -5199,1928 -1122,190 -2277,584 -3415,276 -265,-103 -122,-561 129,-533 1057,-747 2222,-1568 3599,-1405 324,-146 668,-250 965,-450zm-3436 -10297l0 0c1015,3347 1931,6724 2929,10076 156,318 -384,726 -590,409 -222,-31 -224,-345 -265,-518 -1692,-5561 -3326,-11143 -4991,-16713 -128,-241 20,-537 224,-677 22,-212 574,-64 546,-36 747,2450 1461,4969 2147,7459zm6394 -6371l0 0c-915,307 -1709,933 -2684,1061 -1605,145 -3252,10 -4827,-174 -203,-649 -398,-1317 -555,-1980 345,-300 649,-673 1026,-943 -94,-167 182,31 266,30 1666,191 3362,430 5024,80 338,296 669,660 1080,754 616,8 696,682 669,1172zm401 358l0 0c-54,-432 -66,-869 -155,-1297 829,44 1769,-443 2421,-744 405,-14 493,470 678,746 -805,730 -1954,903 -2944,1295zm2950 -2296l0 0c1014,-587 2014,-1246 2778,-2151 690,-1201 1123,-2542 1369,-3903 328,-14 660,-10 985,-71 -839,1618 -1699,3236 -2252,4981 -139,474 -314,1004 -512,1405 -116,422 -230,850 -391,1258 -166,474 -223,1014 -522,1430 -367,-792 -936,-2043 -1454,-2947zm-734 8966l0 0c-809,-1876 -74,-4309 1656,-5402 237,-58 158,467 191,590 -247,795 174,1550 477,2259 292,509 32,1227 491,1654 -591,846 -983,1810 -1470,2709 -529,-527 -973,-1157 -1345,-1811zm8970 12794l0 0c11,219 -284,328 -470,300 -654,-78 -1468,347 -1981,-211 -2133,412 -4352,590 -6538,569 -729,-117 -1886,240 -2360,-386 639,-489 1697,114 2483,-16 2080,92 4144,-199 6209,-397 857,-89 1980,-611 2656,141zm-562 -756l0 0c-1676,222 -3347,492 -5027,677 -1577,268 -3191,44 -4773,-79 -543,48 -177,-584 135,-515 1078,-170 2090,-618 3170,-764 1059,-88 2245,177 3354,19 1033,-120 1987,392 3008,395 97,49 135,164 133,268zm8273 -697l0 0c-448,-1928 -907,-3852 -1495,-5740 -335,-62 120,709 -193,593 -1483,-1110 -2968,-2275 -4067,-3784 -182,-233 104,-519 -4,-773 -1216,419 -2835,155 -4163,-89 383,648 1295,539 1938,718 -1189,900 -2495,1729 -3349,2983 -355,-67 30,-864 -454,-894 76,352 129,1085 -436,870 1085,2036 2923,3777 3677,6005 -654,412 -1426,-147 -2100,-337 -960,-99 -2011,472 -2922,63 -989,-1331 -1341,-2999 -2205,-4406 -270,-522 -711,-1091 -423,-1705 649,-1652 1347,-3317 2461,-4719 389,-967 1598,-1346 2488,-970 1047,-162 2473,-181 3142,-1034 1328,-397 2607,-1026 3684,-1904 1411,1165 2459,2698 3819,3924 991,922 2074,1869 2512,3196 1046,2168 1962,4392 2996,6565 254,460 -102,820 -515,961 -643,616 -1643,846 -2518,942 -643,-76 -1457,165 -1872,-466zm10494 2098l0 0c-908,819 -2235,1062 -3392,916 -2182,-176 -4335,-627 -6472,-1087 -362,-38 -273,-600 119,-402 2158,505 4463,855 6574,1148 920,-40 1935,-91 2663,-734 166,-162 565,-143 508,159z"/>
    <path fill="black" fill-rule="nonzero" d="M16878 18518c1255,-553 2424,-1330 3269,-2427 -36,-148 -110,-283 -206,-400 -1287,402 -2349,1511 -3770,1438 -69,441 -53,1681 708,1389zm84 -1108l0 0c893,-286 1682,-788 2437,-1333 76,-45 104,-25 85,59 -724,788 -1661,1354 -2636,1777 -248,-130 -206,-483 114,-503z"/>
    <path fill="black" fill-rule="nonzero" d="M25172 19009c82,-467 -241,-746 -691,-597 -197,200 -390,424 -369,729 304,-304 693,-237 1060,-132z"/>
    <path fill="black" fill-rule="nonzero" d="M19417 18847c-740,85 -1490,220 -2186,484 -300,33 -53,616 203,361 981,-235 1978,-291 2956,-31 331,-440 -337,-424 -587,-504 107,-267 -84,-467 -385,-311z"/>
    <path fill="black" fill-rule="nonzero" d="M13741 21688c239,145 500,252 787,237l47 -7c813,-153 1722,-284 2335,-891 111,-331 184,-760 -66,-1045 -153,1023 -1351,1336 -2226,1429 -561,180 -1048,-380 -848,-922 -419,-154 -388,908 -31,1198z"/>
    <path fill="black" fill-rule="nonzero" d="M14820 22931c167,487 591,778 1093,597 524,461 301,1261 157,1855 -207,512 -890,221 -1311,275 5,634 948,229 1317,292 64,-7 129,-13 194,-17 455,-51 911,-83 1368,-107 64,-4 128,-7 192,-9 508,-107 1020,-190 1531,-279 446,-160 987,-361 1151,-850 68,-218 104,-444 132,-669 14,-99 30,-197 46,-296 2,-92 7,-276 10,-368 9,-437 -58,-879 -226,-1283 -34,-85 -66,-171 -97,-256 -93,-233 -215,-454 -386,-640 -30,-11 -90,-35 -120,-47 -147,-17 -294,-37 -441,-48 -280,-3 -558,-11 -838,-3 -288,36 -576,77 -854,161 -526,153 -1047,321 -1576,460 -143,49 -288,91 -435,128 -709,246 -1351,642 -2051,910 -168,107 -343,213 -544,244 -444,655 578,75 903,-32l41 -19c237,-95 627,-389 744,-1zm5276 1508l0 0c-605,-1092 -1840,-449 -2742,-257 -40,-608 689,-786 1156,-878 597,-2 1279,-153 1821,177 -50,254 36,915 -235,957zm259 -1394l0 0c-1019,-420 -2148,-76 -3097,365 -567,277 -457,1397 310,1171 674,-250 1756,-691 2040,281 -1040,506 -2203,599 -3325,795 326,-725 271,-1565 55,-2314 1133,-353 2229,-851 3419,-995 528,-250 487,385 599,696zm-5016 -645l0 0c1073,-386 2165,-746 3287,-956 362,6 1233,-197 1197,414 -1544,219 -2933,983 -4435,1357 -150,-223 -445,-705 -49,-816z"/>
   </g>
  </g>
 </g>
</svg>
